<?xml version="1.0" encoding="UTF-8"?>
<!-- Generator: visioncortex VTracer 0.6.3 -->
<svg version="1.1" xmlns="http://www.w3.org/2000/svg" width="1280" height="1280">
<path d="M0 0 C169.6 -0.06 169.6 -0.06 313.01 -0.08 C314.57 -0.08 316.13 -0.09 317.69 -0.09 C350.4 -0.09 383.12 -0.1 415.84 -0.1 C432.27 -0.1 448.7 -0.11 465.14 -0.11 C467.62 -0.11 470.09 -0.11 472.57 -0.11 C510.76 -0.12 548.94 -0.12 587.12 -0.14 C587.95 -0.14 588.77 -0.14 589.61 -0.14 C602.86 -0.14 616.1 -0.15 629.34 -0.15 C667.47 -0.16 705.6 -0.18 743.73 -0.18 C744.52 -0.18 745.3 -0.18 746.11 -0.18 C763.31 -0.18 780.51 -0.19 797.72 -0.19 C804.64 -0.19 811.56 -0.19 818.48 -0.19 C819.24 -0.19 820 -0.19 820.78 -0.19 C845.2 -0.19 869.63 -0.2 894.06 -0.21 C918.66 -0.22 943.26 -0.23 967.85 -0.23 C971.25 -0.23 974.64 -0.23 978.04 -0.23 C978.7 -0.23 979.37 -0.23 980.05 -0.23 C991.26 -0.23 1002.46 -0.23 1013.66 -0.24 C1023.39 -0.25 1033.12 -0.25 1042.85 -0.24 C1048.4 -0.24 1053.96 -0.24 1059.51 -0.25 C1064.55 -0.26 1069.6 -0.26 1074.64 -0.25 C1076.46 -0.25 1078.28 -0.25 1080.1 -0.25 C1082.56 -0.26 1085.02 -0.26 1087.48 -0.25 C1088.19 -0.25 1088.91 -0.26 1089.64 -0.26 C1093.22 -0.24 1096.06 -0.16 1099 2 C1099.33 2.99 1099.66 3.98 1100 5 C1102.31 5 1104.62 5 1107 5 C1107 5.66 1107 6.32 1107 7 C1109.31 7 1111.62 7 1114 7 C1114.33 7.99 1114.66 8.98 1115 10 C1116.08 10.19 1116.08 10.19 1117.19 10.38 C1119.96 10.99 1122.4 11.88 1125 13 C1125 13.66 1125 14.32 1125 15 C1126.08 15.19 1126.08 15.19 1127.19 15.38 C1129.96 15.99 1132.4 16.88 1135 18 C1135 18.66 1135 19.32 1135 20 C1135.66 20 1136.32 20 1137 20 C1137 20.66 1137 21.32 1137 22 C1137.99 22.33 1138.98 22.66 1140 23 C1140 23.66 1140 24.32 1140 25 C1140.78 25.08 1141.57 25.16 1142.38 25.25 C1143.24 25.5 1144.11 25.75 1145 26 C1146.06 27.94 1146.06 27.94 1147 30 C1148.33 30.68 1149.66 31.35 1151 32 C1151.33 32.99 1151.66 33.98 1152 35 C1152.66 35.33 1153.32 35.66 1154 36 C1154.66 36.33 1155.32 36.66 1156 37 C1156.33 37.99 1156.66 38.98 1157 40 C1157.66 40.29 1158.32 40.58 1159 40.88 C1161 42 1161 42 1161.75 44.62 C1161.87 45.8 1161.87 45.8 1162 47 C1162.99 47.33 1163.98 47.66 1165 48 C1165 48.66 1165 49.32 1165 50 C1165.66 50 1166.32 50 1167 50 C1167 51.65 1167 53.3 1167 55 C1167.96 55.34 1167.96 55.34 1168.94 55.69 C1171 57 1171 57 1171.75 59.62 C1171.87 60.8 1171.87 60.8 1172 62 C1172.99 62.33 1173.98 62.66 1175 63 C1177.22 66.97 1177.18 70.52 1177 75 C1177.99 75.33 1178.98 75.66 1180 76 C1181.81 80.76 1182.21 84.94 1182 90 C1182.66 90 1183.32 90 1184 90 C1184 182.73 1184 275.46 1184 371 C1183.34 371 1182.68 371 1182 371 C1182 372.65 1182 374.3 1182 376 C1181.34 376 1180.68 376 1180 376 C1179.67 376.99 1179.34 377.98 1179 379 C1178.34 379 1177.68 379 1177 379 C1177 379.66 1177 380.32 1177 381 C1175.35 381 1173.7 381 1172 381 C1171.67 381.99 1171.34 382.98 1171 384 C1169.68 384 1168.36 384 1167 384 C1167 384.66 1167 385.32 1167 386 C1161.72 386 1156.44 386 1151 386 C1151 385.34 1151 384.68 1151 384 C1149.35 383.67 1147.7 383.34 1146 383 C1146 382.34 1146 381.68 1146 381 C1144.35 381 1142.7 381 1141 381 C1141 380.34 1141 379.68 1141 379 C1140.01 378.67 1139.02 378.34 1138 378 C1138 377.34 1138 376.68 1138 376 C1137.34 376 1136.68 376 1136 376 C1136 374.35 1136 372.7 1136 371 C1135.01 370.67 1134.02 370.34 1133 370 C1133 367.03 1133 364.06 1133 361 C1132.34 361 1131.68 361 1131 361 C1131 275.2 1131 189.4 1131 101 C1130.01 100.67 1129.02 100.34 1128 100 C1126.61 96.12 1126 93.14 1126 89 C1125.01 88.67 1124.02 88.34 1123 88 C1122.33 85.67 1121.67 83.33 1121 81 C1120.01 80.67 1119.02 80.34 1118 80 C1118 78.68 1118 77.36 1118 76 C1117.34 76 1116.68 76 1116 76 C1116 75.34 1116 74.68 1116 74 C1115.01 73.67 1114.02 73.34 1113 73 C1113 72.34 1113 71.68 1113 71 C1112.34 71 1111.68 71 1111 71 C1111 70.34 1111 69.68 1111 69 C1110.01 68.67 1109.02 68.34 1108 68 C1108 67.34 1108 66.68 1108 66 C1107.22 65.92 1106.43 65.83 1105.62 65.75 C1103 65 1103 65 1101.69 62.94 C1101.46 62.3 1101.23 61.66 1101 61 C1099.35 61 1097.7 61 1096 61 C1096 60.34 1096 59.68 1096 59 C1093.69 59 1091.38 59 1089 59 C1088.67 58.01 1088.34 57.02 1088 56 C1085.69 56 1083.38 56 1081 56 C1081 55.34 1081 54.68 1081 54 C726.58 54 372.16 54 7 54 C7 54.66 7 55.32 7 56 C4.69 56 2.38 56 0 56 C-0.33 56.99 -0.66 57.98 -1 59 C-3.31 59 -5.62 59 -8 59 C-8 59.66 -8 60.32 -8 61 C-9.65 61 -11.3 61 -13 61 C-13.23 61.64 -13.45 62.28 -13.69 62.94 C-15 65 -15 65 -17.62 65.75 C-18.41 65.83 -19.19 65.92 -20 66 C-20.5 67.48 -20.5 67.48 -21 69 C-21.66 69 -22.32 69 -23 69 C-23 69.66 -23 70.32 -23 71 C-23.66 71 -24.32 71 -25 71 C-25.5 72.48 -25.5 72.48 -26 74 C-26.66 74 -27.32 74 -28 74 C-28 74.66 -28 75.32 -28 76 C-28.66 76 -29.32 76 -30 76 C-30.33 77.65 -30.66 79.3 -31 81 C-31.66 81 -32.32 81 -33 81 C-33.27 82.13 -33.54 83.27 -33.81 84.44 C-34.2 85.61 -34.6 86.79 -35 88 C-35.99 88.33 -36.98 88.66 -38 89 C-38.12 89.68 -38.25 90.36 -38.38 91.06 C-39.09 94.43 -40.03 97.7 -41 101 C-41.66 101 -42.32 101 -43 101 C-43 314.18 -43 527.36 -43 747 C114.08 747 271.16 747 433 747 C433 685.62 433 624.24 433 561 C433.99 560.67 434.98 560.34 436 560 C435.91 558.45 435.91 558.45 435.81 556.88 C436.01 552.77 436.94 550.51 439 547 C439.66 547 440.32 547 441 547 C441 546.34 441 545.68 441 545 C441.66 545 442.32 545 443 545 C443.33 543.35 443.66 541.7 444 540 C445.32 540 446.64 540 448 540 C448.33 539.01 448.66 538.02 449 537 C449.66 537 450.32 537 451 537 C451 536.34 451 535.68 451 535 C452.65 535 454.3 535 456 535 C456.33 534.01 456.66 533.02 457 532 C458.32 532 459.64 532 461 532 C461 531.34 461 530.68 461 530 C474.94 529.93 488.89 529.88 502.83 529.84 C509.3 529.83 515.78 529.81 522.25 529.77 C528.5 529.74 534.75 529.72 541.01 529.72 C543.39 529.71 545.77 529.7 548.15 529.68 C551.49 529.66 554.84 529.66 558.18 529.66 C559.16 529.65 560.14 529.64 561.15 529.63 C567.13 529.65 571.53 530.57 577 533 C577 533.66 577 534.32 577 535 C578.65 535 580.3 535 582 535 C582 535.66 582 536.32 582 537 C582.99 537.33 583.98 537.66 585 538 C585 538.66 585 539.32 585 540 C585.66 540 586.32 540 587 540 C587 540.66 587 541.32 587 542 C587.99 542.33 588.98 542.66 590 543 C590 543.66 590 544.32 590 545 C590.66 545 591.32 545 592 545 C592 546.65 592 548.3 592 550 C592.99 550.33 593.98 550.66 595 551 C596.92 556.01 597.28 560.67 597.24 566.02 C597.24 567.18 597.24 567.18 597.25 568.37 C597.25 570.96 597.24 573.55 597.23 576.14 C597.23 578.01 597.23 579.87 597.23 581.73 C597.23 586.78 597.22 591.83 597.2 596.87 C597.19 602.15 597.19 607.43 597.19 612.71 C597.18 622.7 597.16 632.69 597.14 642.68 C597.12 654.06 597.11 665.43 597.1 676.81 C597.08 700.21 597.04 723.6 597 747 C617.13 747 637.26 747 658 747 C658 650.97 658 554.94 658 456 C658.99 455.67 659.98 455.34 661 455 C661 451.7 661 448.4 661 445 C661.66 445 662.32 445 663 445 C663.33 443.35 663.66 441.7 664 440 C664.66 440 665.32 440 666 440 C666.27 439.36 666.54 438.72 666.81 438.06 C668 436 668 436 671 435 C671.33 434.34 671.66 433.68 672 433 C673 431 673 431 676 430 C676.33 429.01 676.66 428.02 677 427 C678.32 427 679.64 427 681 427 C681 426.34 681 425.68 681 425 C683.31 425 685.62 425 688 425 C688.33 424.01 688.66 423.02 689 422 C722.66 422 756.32 422 791 422 C791.33 422.99 791.66 423.98 792 425 C793.55 424.91 793.55 424.91 795.12 424.81 C799.23 425.01 801.49 425.94 805 428 C805 428.66 805 429.32 805 430 C805.66 430 806.32 430 807 430 C807 430.66 807 431.32 807 432 C808.65 432.33 810.3 432.66 812 433 C812 433.66 812 434.32 812 435 C812.99 435.33 813.98 435.66 815 436 C815 437.32 815 438.64 815 440 C815.66 440 816.32 440 817 440 C817 440.66 817 441.32 817 442 C817.99 442.33 818.98 442.66 820 443 C820 445.31 820 447.62 820 450 C820.66 450 821.32 450 822 450 C822 548.01 822 646.02 822 747 C842.13 747 862.26 747 883 747 C883 627.87 883 508.74 883 386 C883.99 385.67 884.98 385.34 886 385 C886 381.7 886 378.4 886 375 C886.66 375 887.32 375 888 375 C888.33 373.35 888.66 371.7 889 370 C889.66 370 890.32 370 891 370 C891.27 369.36 891.54 368.72 891.81 368.06 C893 366 893 366 896 365 C896.29 364.34 896.58 363.68 896.88 363 C898 361 898 361 900.62 360.25 C901.41 360.17 902.19 360.08 903 360 C903.33 359.01 903.66 358.02 904 357 C904.66 357 905.32 357 906 357 C906 356.34 906 355.68 906 355 C909.3 355 912.6 355 916 355 C916.33 354.01 916.66 353.02 917 352 C949.01 352 981.02 352 1014 352 C1014.33 352.99 1014.66 353.98 1015 355 C1015.58 354.97 1016.16 354.93 1016.76 354.89 C1022.01 354.71 1025.4 355.17 1030 358 C1030 358.66 1030 359.32 1030 360 C1030.66 360 1031.32 360 1032 360 C1032 360.66 1032 361.32 1032 362 C1033.65 362.33 1035.3 362.66 1037 363 C1037 364.32 1037 365.64 1037 367 C1037.99 367.33 1038.98 367.66 1040 368 C1040 368.66 1040 369.32 1040 370 C1040.66 370 1041.32 370 1042 370 C1042 370.66 1042 371.32 1042 372 C1042.99 372.33 1043.98 372.66 1045 373 C1045 375.31 1045 377.62 1045 380 C1045.66 380 1046.32 380 1047 380 C1047 501.11 1047 622.22 1047 747 C1074.72 747 1102.44 747 1131 747 C1130.99 735.17 1130.98 723.35 1130.96 711.16 C1130.96 703.69 1130.95 696.22 1130.95 688.75 C1130.95 676.88 1130.94 665.01 1130.92 653.14 C1130.91 644.5 1130.91 635.86 1130.91 627.22 C1130.9 622.64 1130.9 618.06 1130.89 613.48 C1130.89 609.17 1130.89 604.87 1130.89 600.56 C1130.89 598.98 1130.88 597.39 1130.88 595.81 C1130.88 593.65 1130.88 591.5 1130.88 589.35 C1130.88 588.14 1130.88 586.93 1130.88 585.68 C1131 583 1131 583 1132 582 C1132.23 580.15 1132.41 578.3 1132.56 576.44 C1132.65 575.43 1132.73 574.41 1132.82 573.37 C1132.91 572.2 1132.91 572.2 1133 571 C1133.99 570.67 1134.98 570.34 1136 570 C1136.4 568.33 1136.4 568.33 1136.81 566.62 C1138 563 1138 563 1141 561.06 C1144 560 1144 560 1146 560 C1146.33 559.01 1146.66 558.02 1147 557 C1154.92 557 1162.84 557 1171 557 C1171.33 557.99 1171.66 558.98 1172 560 C1173.11 560.27 1174.23 560.54 1175.38 560.81 C1179 562 1179 562 1180.94 565 C1182 568 1182 568 1182 570 C1182.66 570 1183.32 570 1184 570 C1184 685.17 1184 800.34 1184 919 C1183.34 919 1182.68 919 1182 919 C1182.03 919.56 1182.07 920.11 1182.11 920.69 C1182.31 926.55 1181.34 930.63 1179 936 C1178.34 936 1177.68 936 1177 936 C1177 937.65 1177 939.3 1177 941 C1176.34 941 1175.68 941 1175 941 C1174.67 942.65 1174.34 944.3 1174 946 C1173.34 946 1172.68 946 1172 946 C1172 947.65 1172 949.3 1172 951 C1171.34 951 1170.68 951 1170 951 C1169.67 952.65 1169.34 954.3 1169 956 C1168.34 956 1167.68 956 1167 956 C1166.6 957.7 1166.6 957.7 1166.19 959.44 C1165.8 960.61 1165.4 961.79 1165 963 C1164.01 963.33 1163.02 963.66 1162 964 C1162 964.66 1162 965.32 1162 966 C1161.34 966 1160.68 966 1160 966 C1159.67 966.99 1159.34 967.98 1159 969 C1158.34 969 1157.68 969 1157 969 C1157 969.66 1157 970.32 1157 971 C1156.34 971 1155.68 971 1155 971 C1154.67 971.99 1154.34 972.98 1154 974 C1153.34 974 1152.68 974 1152 974 C1152 974.66 1152 975.32 1152 976 C1151.34 976 1150.68 976 1150 976 C1149.67 976.99 1149.34 977.98 1149 979 C1148.34 979 1147.68 979 1147 979 C1147 979.66 1147 980.32 1147 981 C1146.34 981 1145.68 981 1145 981 C1144.67 981.99 1144.34 982.98 1144 984 C1143.34 984 1142.68 984 1142 984 C1142 984.66 1142 985.32 1142 986 C1141.34 986 1140.68 986 1140 986 C1139.67 986.99 1139.34 987.98 1139 989 C1136.67 989.67 1134.33 990.33 1132 991 C1131.67 991.99 1131.34 992.98 1131 994 C1129.68 994 1128.36 994 1127 994 C1127 994.66 1127 995.32 1127 996 C1125.35 996 1123.7 996 1122 996 C1121.67 996.99 1121.34 997.98 1121 999 C1119.68 999 1118.36 999 1117 999 C1117 999.66 1117 1000.32 1117 1001 C1114.69 1001 1112.38 1001 1110 1001 C1109.67 1001.99 1109.34 1002.98 1109 1004 C1106.69 1004 1104.38 1004 1102 1004 C1102 1004.66 1102 1005.32 1102 1006 C1098.7 1006 1095.4 1006 1092 1006 C1091.67 1006.99 1091.34 1007.98 1091 1009 C971.87 1009 852.74 1009 730 1009 C730 1034.74 730 1060.48 730 1087 C757.72 1087 785.44 1087 814 1087 C814.33 1087.99 814.66 1088.98 815 1090 C818.96 1090 822.92 1090 827 1090 C827 1090.66 827 1091.32 827 1092 C829.31 1092 831.62 1092 834 1092 C834.33 1092.99 834.66 1093.98 835 1095 C836.08 1095.19 836.08 1095.19 837.19 1095.38 C839.96 1095.99 842.4 1096.88 845 1098 C845 1098.66 845 1099.32 845 1100 C846.08 1100.19 846.08 1100.19 847.19 1100.38 C849.96 1100.99 852.4 1101.88 855 1103 C855 1103.66 855 1104.32 855 1105 C855.66 1105 856.32 1105 857 1105 C857 1105.66 857 1106.32 857 1107 C857.99 1107.33 858.98 1107.66 860 1108 C860 1108.66 860 1109.32 860 1110 C860.66 1110 861.32 1110 862 1110 C862 1110.66 862 1111.32 862 1112 C862.99 1112.33 863.98 1112.66 865 1113 C865 1113.66 865 1114.32 865 1115 C865.66 1115 866.32 1115 867 1115 C867 1115.66 867 1116.32 867 1117 C867.99 1117.33 868.98 1117.66 870 1118 C870 1118.66 870 1119.32 870 1120 C870.66 1120 871.32 1120 872 1120 C872 1120.66 872 1121.32 872 1122 C872.99 1122.33 873.98 1122.66 875 1123 C875 1123.66 875 1124.32 875 1125 C875.66 1125 876.32 1125 877 1125 C877 1125.66 877 1126.32 877 1127 C877.99 1127.33 878.98 1127.66 880 1128 C881.71 1131.32 882 1133.18 882 1137 C882.99 1137.33 883.98 1137.66 885 1138 C886.71 1141.32 887 1143.18 887 1147 C887.99 1147.33 888.98 1147.66 890 1148 C890 1150.31 890 1152.62 890 1155 C890.66 1155 891.32 1155 892 1155 C892 1158.96 892 1162.92 892 1167 C892.99 1167.33 893.98 1167.66 895 1168 C895 1185.16 895 1202.32 895 1220 C894.01 1220.33 893.02 1220.66 892 1221 C892.09 1222.49 892.09 1222.49 892.19 1224 C892.21 1228.47 890.72 1231.91 889 1236 C888.34 1236 887.68 1236 887 1236 C886.73 1237.13 886.46 1238.27 886.19 1239.44 C885.8 1240.61 885.4 1241.79 885 1243 C884.01 1243.33 883.02 1243.66 882 1244 C882 1244.66 882 1245.32 882 1246 C881.34 1246 880.68 1246 880 1246 C879.67 1246.99 879.34 1247.98 879 1249 C878.34 1249 877.68 1249 877 1249 C877 1249.66 877 1250.32 877 1251 C876.34 1251 875.68 1251 875 1251 C874.67 1251.99 874.34 1252.98 874 1254 C873.34 1254 872.68 1254 872 1254 C872 1254.66 872 1255.32 872 1256 C870.35 1256 868.7 1256 867 1256 C866.69 1256.64 866.38 1257.28 866.06 1257.94 C865 1260 865 1260 864 1261 C861.67 1261.04 859.33 1261.04 857 1261 C856.67 1261.99 856.34 1262.98 856 1264 C850.55 1265.14 845.26 1265.14 839.72 1265.13 C838.17 1265.13 838.17 1265.13 836.58 1265.13 C833.08 1265.14 829.59 1265.14 826.09 1265.13 C823.57 1265.14 821.04 1265.14 818.52 1265.14 C813.02 1265.15 807.52 1265.15 802.03 1265.15 C793.85 1265.14 785.68 1265.15 777.5 1265.15 C762.05 1265.16 746.6 1265.17 731.15 1265.17 C719.22 1265.17 707.3 1265.17 695.37 1265.17 C691.94 1265.17 688.5 1265.17 685.07 1265.18 C683.79 1265.18 683.79 1265.18 682.49 1265.18 C658.49 1265.18 634.49 1265.19 610.49 1265.19 C609.13 1265.19 609.13 1265.19 607.74 1265.19 C603.16 1265.19 598.57 1265.19 593.98 1265.19 C593.07 1265.19 592.16 1265.19 591.22 1265.19 C589.38 1265.19 587.54 1265.19 585.69 1265.19 C557.02 1265.18 528.35 1265.19 499.67 1265.21 C467.47 1265.22 435.27 1265.23 403.06 1265.23 C399.63 1265.23 396.2 1265.23 392.77 1265.23 C391.92 1265.23 391.08 1265.23 390.2 1265.23 C376.59 1265.23 362.98 1265.24 349.37 1265.24 C335.69 1265.25 322.02 1265.25 308.34 1265.25 C300.21 1265.24 292.09 1265.24 283.96 1265.25 C277.89 1265.26 271.83 1265.26 265.77 1265.25 C263.31 1265.25 260.85 1265.25 258.4 1265.26 C255.07 1265.26 251.73 1265.26 248.4 1265.25 C247.44 1265.25 246.48 1265.26 245.49 1265.26 C240.27 1265.24 235.94 1264.71 231 1263 C231 1262.34 231 1261.68 231 1261 C229.91 1261.06 228.81 1261.12 227.69 1261.19 C224 1261 224 1261 222.06 1259.62 C221 1258 221 1258 221 1256 C219.35 1256 217.7 1256 216 1256 C216 1255.34 216 1254.68 216 1254 C215.01 1253.67 214.02 1253.34 213 1253 C213 1252.34 213 1251.68 213 1251 C212.34 1251 211.68 1251 211 1251 C211 1250.34 211 1249.68 211 1249 C210.01 1248.67 209.02 1248.34 208 1248 C208 1247.34 208 1246.68 208 1246 C207.34 1246 206.68 1246 206 1246 C206 1245.34 206 1244.68 206 1244 C205.01 1243.67 204.02 1243.34 203 1243 C202.33 1240.67 201.67 1238.33 201 1236 C200.01 1235.67 199.02 1235.34 198 1235 C196.19 1230.24 195.79 1226.06 196 1221 C195.01 1220.67 194.02 1220.34 193 1220 C193 1202.84 193 1185.68 193 1168 C193.99 1167.67 194.98 1167.34 196 1167 C196 1163.04 196 1159.08 196 1155 C196.66 1155 197.32 1155 198 1155 C198 1152.69 198 1150.38 198 1148 C198.99 1147.67 199.98 1147.34 201 1147 C201.12 1146.28 201.25 1145.56 201.38 1144.81 C201.99 1142.04 202.88 1139.6 204 1137 C204.66 1137 205.32 1137 206 1137 C206.12 1136.28 206.25 1135.56 206.38 1134.81 C206.99 1132.04 207.88 1129.6 209 1127 C209.66 1127 210.32 1127 211 1127 C211 1126.34 211 1125.68 211 1125 C211.66 1125 212.32 1125 213 1125 C213.33 1124.01 213.66 1123.02 214 1122 C214.66 1122 215.32 1122 216 1122 C216 1121.34 216 1120.68 216 1120 C216.66 1120 217.32 1120 218 1120 C218.33 1119.01 218.66 1118.02 219 1117 C219.66 1117 220.32 1117 221 1117 C221 1116.34 221 1115.68 221 1115 C221.66 1115 222.32 1115 223 1115 C223.33 1114.01 223.66 1113.02 224 1112 C224.66 1112 225.32 1112 226 1112 C226 1111.34 226 1110.68 226 1110 C226.66 1110 227.32 1110 228 1110 C228.33 1109.01 228.66 1108.02 229 1107 C229.66 1107 230.32 1107 231 1107 C231 1106.34 231 1105.68 231 1105 C231.66 1105 232.32 1105 233 1105 C233.33 1104.01 233.66 1103.02 234 1102 C237.32 1100.29 239.18 1100 243 1100 C243.33 1099.01 243.66 1098.02 244 1097 C247.32 1095.29 249.18 1095 253 1095 C253.33 1094.01 253.66 1093.02 254 1092 C256.31 1092 258.62 1092 261 1092 C261 1091.34 261 1090.68 261 1090 C264.96 1090 268.92 1090 273 1090 C273.33 1089.01 273.66 1088.02 274 1087 C301.72 1087 329.44 1087 358 1087 C358 1061.26 358 1035.52 358 1009 C238.87 1009 119.74 1009 -3 1009 C-3.5 1007.51 -3.5 1007.51 -4 1006 C-7.3 1006 -10.6 1006 -14 1006 C-14 1005.34 -14 1004.68 -14 1004 C-16.31 1004 -18.62 1004 -21 1004 C-21.5 1002.51 -21.5 1002.51 -22 1001 C-24.31 1001 -26.62 1001 -29 1001 C-29 1000.34 -29 999.68 -29 999 C-30.65 998.67 -32.3 998.34 -34 998 C-34 997.34 -34 996.68 -34 996 C-35.65 996 -37.3 996 -39 996 C-39 995.34 -39 994.68 -39 994 C-40.65 993.67 -42.3 993.34 -44 993 C-44 992.34 -44 991.68 -44 991 C-45.13 990.73 -46.27 990.46 -47.44 990.19 C-48.61 989.8 -49.79 989.4 -51 989 C-51.49 987.51 -51.49 987.51 -52 986 C-52.66 986 -53.32 986 -54 986 C-54 985.34 -54 984.68 -54 984 C-54.99 983.67 -55.98 983.34 -57 983 C-57 982.34 -57 981.68 -57 981 C-57.66 981 -58.32 981 -59 981 C-59 980.34 -59 979.68 -59 979 C-59.99 978.67 -60.98 978.34 -62 978 C-62 977.34 -62 976.68 -62 976 C-62.66 976 -63.32 976 -64 976 C-64 975.34 -64 974.68 -64 974 C-64.99 973.67 -65.98 973.34 -67 973 C-67 972.34 -67 971.68 -67 971 C-67.66 971 -68.32 971 -69 971 C-69 970.34 -69 969.68 -69 969 C-69.99 968.67 -70.98 968.34 -72 968 C-72 967.34 -72 966.68 -72 966 C-72.66 966 -73.32 966 -74 966 C-74 965.34 -74 964.68 -74 964 C-74.99 963.67 -75.98 963.34 -77 963 C-77.67 960.67 -78.33 958.33 -79 956 C-79.99 955.67 -80.98 955.34 -82 955 C-82 953.68 -82 952.36 -82 951 C-82.66 951 -83.32 951 -84 951 C-84 949.35 -84 947.7 -84 946 C-84.99 945.67 -85.98 945.34 -87 945 C-87 943.68 -87 942.36 -87 941 C-87.66 941 -88.32 941 -89 941 C-89 939.35 -89 937.7 -89 936 C-89.99 935.67 -90.98 935.34 -92 935 C-94.12 929.64 -94.23 924.72 -94 919 C-94.66 919 -95.32 919 -96 919 C-96 645.43 -96 371.86 -96 90 C-95.34 90 -94.68 90 -94 90 C-94.06 89.01 -94.12 88.02 -94.19 87 C-94.21 82.53 -92.72 79.09 -91 75 C-90.34 75 -89.68 75 -89 75 C-89.09 73.45 -89.09 73.45 -89.19 71.88 C-88.99 67.77 -88.06 65.51 -86 62 C-85.34 62 -84.68 62 -84 62 C-83.88 60.82 -83.88 60.82 -83.75 59.62 C-83 57 -83 57 -80.94 55.69 C-80.3 55.46 -79.66 55.23 -79 55 C-79 53.35 -79 51.7 -79 50 C-78.34 50 -77.68 50 -77 50 C-76.67 49.01 -76.34 48.02 -76 47 C-75.34 47 -74.68 47 -74 47 C-73.88 45.82 -73.88 45.82 -73.75 44.62 C-73.5 43.76 -73.25 42.89 -73 42 C-71.06 40.94 -71.06 40.94 -69 40 C-68.32 38.67 -67.65 37.34 -67 36 C-65.52 35.51 -65.52 35.51 -64 35 C-63.51 34.01 -63.51 34.01 -63 33 C-62 31 -62 31 -59 30 C-58.71 29.34 -58.42 28.68 -58.12 28 C-57 26 -57 26 -54.38 25.25 C-53.59 25.17 -52.81 25.09 -52 25 C-51.51 23.52 -51.51 23.52 -51 22 C-50.34 22 -49.68 22 -49 22 C-49 21.34 -49 20.68 -49 20 C-48.34 20 -47.68 20 -47 20 C-46.51 18.52 -46.51 18.52 -46 17 C-42.68 15.29 -40.82 15 -37 15 C-36.67 14.01 -36.34 13.02 -36 12 C-32.68 10.29 -30.82 10 -27 10 C-26.67 9.01 -26.34 8.02 -26 7 C-23.69 7 -21.38 7 -19 7 C-19 6.34 -19 5.68 -19 5 C-16.69 5 -14.38 5 -12 5 C-11.67 4.01 -11.34 3.02 -11 2 C-7.37 1.67 -3.74 1.34 0 1 C0 0.67 0 0.34 0 0 Z M937 406 C937 518.53 937 631.06 937 747 C955.48 747 973.96 747 993 747 C993 634.47 993 521.94 993 406 C974.52 406 956.04 406 937 406 Z M712 476 C712 565.43 712 654.86 712 747 C730.48 747 748.96 747 768 747 C768 657.57 768 568.14 768 476 C749.52 476 731.04 476 712 476 Z M487 584 C487 637.79 487 691.58 487 747 C505.48 747 523.96 747 543 747 C543 693.21 543 639.42 543 584 C524.52 584 506.04 584 487 584 Z M-43 801 C-43 836.97 -43 872.94 -43 910 C-42.34 910.33 -41.68 910.66 -41 911 C-40.02 914.06 -39.18 917.09 -38.56 920.25 C-37.84 922.49 -36.82 923.54 -35 925 C-34.34 925 -33.68 925 -33 925 C-33.08 925.75 -33.15 926.51 -33.23 927.28 C-33.26 930.06 -33.26 930.06 -31.43 931.84 C-30.73 932.39 -30.03 932.94 -29.31 933.5 C-28.58 934.09 -27.86 934.69 -27.11 935.3 C-26.41 935.86 -25.72 936.42 -25 937 C-22.27 939.61 -20.1 941.86 -18 945 C-15.42 945.25 -15.42 945.25 -13 945 C-13 945.66 -13 946.32 -13 947 C-11.98 948.77 -11.98 948.77 -10 950 C-6.37 950.25 -6.37 950.25 -3 950 C-3 950.66 -3 951.32 -3 952 C-1.3 952.19 -1.3 952.19 0.44 952.38 C1.61 952.58 2.79 952.79 4 953 C4.33 953.66 4.66 954.32 5 955 C360.74 955 716.48 955 1083 955 C1083.33 954.34 1083.66 953.68 1084 953 C1086.32 952.59 1088.66 952.26 1091 952 C1091 951.34 1091 950.68 1091 950 C1092.65 950 1094.3 950 1096 950 C1096.33 949.34 1096.66 948.68 1097 948 C1099.06 947.38 1099.06 947.38 1101 947 C1101 946.34 1101 945.68 1101 945 C1101.75 945.08 1102.51 945.15 1103.28 945.23 C1106.06 945.26 1106.06 945.26 1107.84 943.43 C1108.39 942.73 1108.94 942.03 1109.5 941.31 C1110.39 940.22 1110.39 940.22 1111.3 939.11 C1112.14 938.06 1112.14 938.06 1113 937 C1115.61 934.27 1117.86 932.1 1121 930 C1121.25 927.42 1121.25 927.42 1121 925 C1121.66 925 1122.32 925 1123 925 C1126.75 922.03 1127.79 918.35 1128.5 913.75 C1128.66 912.84 1128.83 911.93 1129 911 C1129.66 910.67 1130.32 910.34 1131 910 C1131 874.03 1131 838.06 1131 801 C743.58 801 356.16 801 -43 801 Z M412 1009 C412 1034.74 412 1060.48 412 1087 C499.12 1087 586.24 1087 676 1087 C676 1061.26 676 1035.52 676 1009 C588.88 1009 501.76 1009 412 1009 Z M280 1141 C279.67 1141.66 279.34 1142.32 279 1143 C276.68 1143.41 274.34 1143.74 272 1144 C272 1144.66 272 1145.32 272 1146 C271.25 1145.92 270.49 1145.85 269.72 1145.77 C266.94 1145.74 266.94 1145.74 265.16 1147.57 C264.34 1148.62 264.34 1148.62 263.5 1149.69 C262.91 1150.42 262.31 1151.14 261.7 1151.89 C260.86 1152.94 260.86 1152.94 260 1154 C257.39 1156.73 255.14 1158.9 252 1161 C251.75 1163.58 251.75 1163.58 252 1166 C251.34 1166 250.68 1166 250 1166 C249.88 1167.13 249.75 1168.27 249.62 1169.44 C249.42 1170.61 249.21 1171.79 249 1173 C248.01 1173.49 248.01 1173.49 247 1174 C246.93 1179.09 246.87 1184.18 246.84 1189.27 C246.82 1191 246.8 1192.74 246.77 1194.47 C246.74 1196.96 246.72 1199.44 246.71 1201.93 C246.69 1202.71 246.68 1203.48 246.66 1204.28 C246.62 1206.7 246.62 1206.7 247 1210 C250.07 1212.05 250.68 1212.25 254.14 1212.25 C254.99 1212.26 255.84 1212.26 256.71 1212.27 C257.65 1212.26 258.58 1212.26 259.54 1212.25 C261.04 1212.26 261.04 1212.26 262.56 1212.26 C265.93 1212.27 269.3 1212.26 272.66 1212.25 C275.09 1212.26 277.51 1212.26 279.94 1212.26 C285.23 1212.27 290.52 1212.27 295.81 1212.27 C303.68 1212.26 311.55 1212.26 319.42 1212.27 C333.47 1212.28 347.52 1212.28 361.57 1212.27 C373.86 1212.27 386.16 1212.27 398.45 1212.27 C399.27 1212.27 400.08 1212.27 400.92 1212.27 C404.23 1212.27 407.53 1212.27 410.84 1212.27 C441.87 1212.28 472.91 1212.27 503.94 1212.26 C531.53 1212.25 559.13 1212.25 586.72 1212.26 C617.69 1212.27 648.67 1212.28 679.65 1212.27 C682.95 1212.27 686.25 1212.27 689.55 1212.27 C690.36 1212.27 691.17 1212.27 692.01 1212.27 C704.3 1212.26 716.59 1212.27 728.88 1212.27 C742.85 1212.28 756.82 1212.28 770.79 1212.27 C778.61 1212.26 786.43 1212.26 794.26 1212.27 C800.09 1212.27 805.92 1212.27 811.75 1212.26 C814.12 1212.26 816.48 1212.26 818.85 1212.26 C822.05 1212.27 825.26 1212.26 828.46 1212.25 C829.86 1212.26 829.86 1212.26 831.29 1212.27 C832.56 1212.26 832.56 1212.26 833.86 1212.25 C834.59 1212.25 835.33 1212.25 836.08 1212.25 C838.33 1212.1 838.33 1212.1 841 1210 C841.27 1207.23 841.35 1204.69 841.29 1201.93 C841.29 1201.13 841.28 1200.34 841.28 1199.52 C841.26 1196.97 841.23 1194.42 841.19 1191.88 C841.17 1190.15 841.16 1188.42 841.15 1186.7 C841.11 1182.47 841.06 1178.23 841 1174 C840.34 1173.67 839.68 1173.34 839 1173 C838.59 1170.68 838.26 1168.34 838 1166 C837.34 1166 836.68 1166 836 1166 C836.11 1164.87 836.11 1164.87 836.23 1163.72 C836.26 1160.94 836.26 1160.94 834.43 1159.16 C833.38 1158.34 833.38 1158.34 832.31 1157.5 C831.58 1156.91 830.86 1156.31 830.11 1155.7 C829.06 1154.86 829.06 1154.86 828 1154 C825.27 1151.39 823.1 1149.14 821 1146 C818.42 1145.75 818.42 1145.75 816 1146 C816 1145.34 816 1144.68 816 1144 C814.3 1143.81 814.3 1143.81 812.56 1143.62 C811.39 1143.42 810.21 1143.21 809 1143 C808.67 1142.34 808.34 1141.68 808 1141 C633.76 1141 459.52 1141 280 1141 Z " fill="#3E1F09" transform="translate(96,7)"/>
<path d="M0 0 C4.61 -0.05 9.22 -0.09 13.82 -0.11 C15.39 -0.12 16.96 -0.13 18.52 -0.15 C20.78 -0.18 23.04 -0.19 25.29 -0.2 C25.99 -0.21 26.69 -0.22 27.4 -0.23 C32.99 -0.23 36.4 0.93 41 4 C41 4.66 41 5.32 41 6 C41.66 6 42.32 6 43 6 C44.62 7.38 44.62 7.38 46 9 C46 9.66 46 10.32 46 11 C46.66 11 47.32 11 48 11 C55.13 18.49 55.3 25.5 55.32 35.52 C55.33 37.41 55.33 37.41 55.35 39.34 C55.38 42.78 55.39 46.22 55.4 49.66 C55.42 53.26 55.45 56.86 55.47 60.46 C55.52 67.27 55.56 74.08 55.59 80.89 C55.63 88.64 55.68 96.4 55.73 104.15 C55.83 120.1 55.92 136.05 56 152 C56.66 151.34 57.32 150.68 58 150 C59.93 149.75 59.93 149.75 62.34 149.76 C63.71 149.76 63.71 149.76 65.1 149.75 C66.11 149.76 67.11 149.77 68.14 149.77 C69.19 149.77 70.25 149.77 71.33 149.77 C74.83 149.77 78.32 149.79 81.82 149.8 C84.24 149.81 86.66 149.81 89.08 149.81 C95.45 149.82 101.83 149.84 108.2 149.86 C114.7 149.88 121.21 149.89 127.71 149.9 C140.47 149.92 153.24 149.96 166 150 C166 150.66 166 151.32 166 152 C166.59 151.99 167.18 151.99 167.79 151.98 C170.46 151.96 173.14 151.95 175.81 151.94 C177.21 151.92 177.21 151.92 178.63 151.91 C179.52 151.91 180.41 151.91 181.33 151.9 C182.15 151.9 182.98 151.89 183.82 151.89 C186 152 186 152 189 153 C189 153.66 189 154.32 189 155 C189.93 155.27 190.86 155.54 191.81 155.81 C194.82 156.93 195.96 157.66 198 160 C198.66 160.33 199.32 160.66 200 161 C200.63 163.56 200.63 163.56 201 166 C201.99 166.33 202.98 166.66 204 167 C207.84 174.23 207.35 181.47 207.19 189.5 C207.17 190.8 207.16 192.1 207.15 193.44 C207.11 196.63 207.06 199.81 207 203 C206.34 203 205.68 203 205 203 C205 207.95 205 212.9 205 218 C204.34 218 203.68 218 203 218 C202.67 221.3 202.34 224.6 202 228 C201.34 228 200.68 228 200 228 C200 230.31 200 232.62 200 235 C199.34 235 198.68 235 198 235 C197.67 237.64 197.34 240.28 197 243 C196.34 243 195.68 243 195 243 C194.88 243.68 194.75 244.36 194.62 245.06 C193.91 248.43 192.97 251.7 192 255 C191.34 255 190.68 255 190 255 C190 256.65 190 258.3 190 260 C189.34 260 188.68 260 188 260 C187.67 261.65 187.34 263.3 187 265 C186.34 265 185.68 265 185 265 C184.73 266.13 184.46 267.27 184.19 268.44 C183.8 269.61 183.4 270.79 183 272 C182.01 272.33 181.02 272.66 180 273 C179.92 273.78 179.83 274.57 179.75 275.38 C179.5 276.24 179.25 277.11 179 278 C177.67 278.67 176.33 279.33 175 280 C174.87 280.76 174.75 281.53 174.62 282.31 C173.85 285.66 172.59 286.73 170.06 289 C166.98 291.76 166.98 291.76 165.11 295.37 C163.88 298.29 162.49 299.9 160.26 302.14 C159.52 302.88 158.79 303.62 158.03 304.38 C157.25 305.14 156.48 305.9 155.69 306.69 C154.93 307.46 154.17 308.23 153.38 309.03 C152.64 309.76 151.9 310.5 151.14 311.26 C150.13 312.27 150.13 312.27 149.1 313.29 C146.82 315.14 144.73 315.98 142 317 C139.83 318.92 139.83 318.92 137.88 321.12 C135.87 323.32 135.87 323.32 134 325 C133.01 325 132.02 325 131 325 C130.67 325.99 130.34 326.98 130 328 C129.34 328 128.68 328 128 328 C128 328.66 128 329.32 128 330 C126.35 330 124.7 330 123 330 C122.67 330.99 122.34 331.98 122 333 C120.35 333.7 118.68 334.36 117 335 C116.23 335.8 116.23 335.8 115.44 336.62 C114 338 114 338 110 338 C109.67 338.99 109.34 339.98 109 341 C108.01 340.67 107.02 340.34 106 340 C106 340.66 106 341.32 106 342 C103.36 342.33 100.72 342.66 98 343 C98 343.66 98 344.32 98 345 C96.35 345 94.7 345 93 345 C93 345.66 93 346.32 93 347 C90.36 347.33 87.72 347.66 85 348 C85 348.66 85 349.32 85 350 C83.82 350.12 82.65 350.25 81.44 350.38 C78.56 350.73 76.13 351.25 73.31 352.06 C70.32 352.91 68.07 353.19 65 353 C65 353.66 65 354.32 65 355 C64.07 355.06 63.15 355.12 62.19 355.18 C60.4 355.31 60.4 355.31 58.56 355.44 C57.37 355.52 56.17 355.6 54.94 355.68 C52.11 355.68 52.11 355.68 51 357 C49.65 357.1 48.3 357.13 46.96 357.13 C46.1 357.13 45.24 357.14 44.36 357.14 C43.42 357.14 42.49 357.13 41.53 357.13 C40.11 357.13 40.11 357.13 38.65 357.14 C36.64 357.14 34.62 357.13 32.61 357.13 C29.51 357.13 26.42 357.13 23.32 357.14 C21.37 357.14 19.42 357.13 17.47 357.13 C16.54 357.13 15.6 357.14 14.64 357.14 C13.79 357.14 12.93 357.13 12.04 357.13 C11.29 357.13 10.53 357.13 9.75 357.13 C8 357 8 357 7 356 C3.66 355.76 0.33 355.6 -3.01 355.48 C-6.9 355.29 -9.6 354.84 -13 353 C-15.59 352.4 -18.14 351.86 -20.75 351.38 C-21.45 351.24 -22.14 351.11 -22.86 350.97 C-24.57 350.64 -26.29 350.32 -28 350 C-28 349.34 -28 348.68 -28 348 C-35.43 346.51 -35.43 346.51 -43 345 C-43 344.34 -43 343.68 -43 343 C-43.51 342.9 -44.02 342.8 -44.54 342.7 C-52.7 340.38 -61.33 336.32 -67.45 330.41 C-70.84 327.32 -74.98 324.88 -79.18 323.05 C-81 322 -81 322 -82 319 C-83.45 318.29 -83.45 318.29 -84.94 317.56 C-88.33 315.83 -88.41 315.18 -90 312 C-92.56 311.19 -92.56 311.19 -95 311 C-95 309.68 -95 308.36 -95 307 C-96.65 306.67 -98.3 306.34 -100 306 C-100 304.68 -100 303.36 -100 302 C-101.65 301.67 -103.3 301.34 -105 301 C-105 299.68 -105 298.36 -105 297 C-106.65 296.67 -108.3 296.34 -110 296 C-110.25 295.07 -110.5 294.14 -110.75 293.19 C-111.69 289.97 -111.69 289.97 -113.93 288.57 C-116.26 286.8 -117.13 285.34 -118.44 282.75 C-122.08 275.32 -122.08 275.32 -128 270 C-128.85 267.71 -128.85 267.71 -129.62 264.94 C-129.89 264.02 -130.15 263.1 -130.41 262.15 C-130.7 261.09 -130.7 261.09 -131 260 C-131.66 260 -132.32 260 -133 260 C-133.99 256.7 -134.98 253.4 -136 250 C-136.66 250 -137.32 250 -138 250 C-139.42 246.18 -140.24 243.09 -140 239 C-140.99 238.67 -141.98 238.34 -143 238 C-143.19 236.87 -143.39 235.74 -143.59 234.57 C-143.85 233.09 -144.11 231.61 -144.38 230.12 C-144.5 229.38 -144.63 228.63 -144.76 227.86 C-145.45 223.49 -145.45 223.49 -148 220 C-148.38 217.43 -148.38 217.43 -148.56 214.44 C-148.5 210.91 -148.5 210.91 -150 208 C-150.09 206.19 -150.12 204.38 -150.11 202.56 C-150.11 201.4 -150.11 200.24 -150.11 199.04 C-150.11 197.78 -150.1 196.52 -150.1 195.21 C-150.1 193.93 -150.09 192.64 -150.09 191.32 C-150.09 187.89 -150.08 184.47 -150.07 181.04 C-150.06 177.55 -150.05 174.06 -150.05 170.57 C-150.04 163.71 -150.02 156.86 -150 150 C-149.34 150 -148.68 150 -148 150 C-148.33 149.01 -148.66 148.02 -149 147 C-148.88 144.74 -148.88 144.74 -148.56 142.31 C-148.46 141.5 -148.36 140.7 -148.25 139.86 C-148.17 139.25 -148.09 138.63 -148 138 C-147.01 137.67 -146.02 137.34 -145 137 C-145.03 136.44 -145.07 135.89 -145.11 135.31 C-145.31 129.48 -144.32 125.3 -142 120 C-140.33 115.88 -139 112.54 -139 108 C-137.02 107.5 -137.02 107.5 -135 107 C-134.88 106.32 -134.75 105.64 -134.62 104.94 C-132.6 95.44 -132.6 95.44 -129 92 C-129 90.68 -129 89.36 -129 88 C-127.02 87.5 -127.02 87.5 -125 87 C-124.92 86.22 -124.84 85.43 -124.75 84.62 C-124 82 -124 82 -121.94 80.69 C-121.3 80.46 -120.66 80.23 -120 80 C-120 78.35 -120 76.7 -120 75 C-119.34 75 -118.68 75 -118 75 C-117.5 73.51 -117.5 73.51 -117 72 C-116.34 72 -115.68 72 -115 72 C-114.84 70.87 -114.84 70.87 -114.69 69.72 C-113.93 66.74 -113.15 65.65 -111.01 63.49 C-110.38 62.85 -109.76 62.21 -109.11 61.55 C-108.43 60.88 -107.75 60.21 -107.04 59.51 C-106.34 58.81 -105.64 58.11 -104.92 57.38 C-103.44 55.9 -101.96 54.42 -100.47 52.95 C-98.19 50.69 -95.93 48.41 -93.68 46.13 C-92.24 44.69 -90.8 43.26 -89.36 41.82 C-88.68 41.14 -88 40.46 -87.31 39.75 C-86.67 39.13 -86.03 38.5 -85.38 37.86 C-84.82 37.3 -84.26 36.75 -83.69 36.18 C-82 35 -82 35 -78 35 C-77.67 34.01 -77.34 33.02 -77 32 C-76.34 32 -75.68 32 -75 32 C-75 31.34 -75 30.68 -75 30 C-73.35 30 -71.7 30 -70 30 C-69.77 29.36 -69.55 28.72 -69.31 28.06 C-68 26 -68 26 -65.38 25.25 C-64.59 25.17 -63.81 25.09 -63 25 C-62.5 23.51 -62.5 23.51 -62 22 C-61.34 22 -60.68 22 -60 22 C-60 21.34 -60 20.68 -60 20 C-57.69 20 -55.38 20 -53 20 C-52.5 18.51 -52.5 18.51 -52 17 C-51.34 17 -50.68 17 -50 17 C-50 16.34 -50 15.68 -50 15 C-47.69 15 -45.38 15 -43 15 C-42.67 14.01 -42.34 13.02 -42 12 C-41.34 12 -40.68 12 -40 12 C-40 11.34 -40 10.68 -40 10 C-39.06 9.93 -39.06 9.93 -38.1 9.85 C-37.28 9.78 -36.47 9.7 -35.62 9.62 C-34.81 9.56 -34 9.49 -33.16 9.41 C-30.8 9.17 -30.8 9.17 -29 7 C-23.57 5 -18.76 4.77 -13 5 C-12.67 4.01 -12.34 3.02 -12 2 C-10.38 1.81 -8.75 1.62 -7.12 1.44 C-6.22 1.33 -5.32 1.23 -4.38 1.12 C-2 1 -2 1 0 2 C0 1.34 0 0.68 0 0 Z M-6 57 C-7.9 57.53 -9.82 58 -11.75 58.44 C-16.46 59.56 -20.64 60.92 -25 63 C-25 63.66 -25 64.32 -25 65 C-25.54 65.12 -26.07 65.25 -26.62 65.38 C-29.48 66.13 -32.24 66.96 -35 68 C-35.33 68.66 -35.66 69.32 -36 70 C-36.99 70 -37.98 70 -39 70 C-39.6 70.6 -40.2 71.2 -40.81 71.81 C-43 74 -43 74 -45.79 75.31 C-49.36 77.19 -51.7 79.31 -54.55 82.15 C-55.04 82.64 -55.54 83.14 -56.05 83.65 C-57.1 84.69 -58.13 85.73 -59.17 86.78 C-60.75 88.37 -62.34 89.95 -63.94 91.53 C-64.96 92.55 -65.97 93.57 -66.98 94.59 C-67.9 95.5 -68.81 96.42 -69.76 97.37 C-71.92 99.91 -72.92 101.88 -74 105 C-75 106 -76 107 -77 108 C-77.35 109.33 -77.69 110.66 -78 112 C-78.99 112.5 -78.99 112.5 -80 113 C-80 113.66 -80 114.32 -80 115 C-80.66 115 -81.32 115 -82 115 C-84.29 119.81 -84.29 119.81 -85 125 C-85.66 125 -86.32 125 -87 125 C-87.12 125.64 -87.25 126.28 -87.38 126.94 C-87.58 127.62 -87.79 128.3 -88 129 C-88.99 129.5 -88.99 129.5 -90 130 C-90 132.64 -90 135.28 -90 138 C-90.66 138 -91.32 138 -92 138 C-94.29 143.9 -95.35 148.67 -95 155 C-95.66 155 -96.32 155 -97 155 C-97.75 160.38 -98.16 165.64 -98.17 171.08 C-98.17 171.81 -98.17 172.55 -98.18 173.3 C-98.18 174.84 -98.19 176.37 -98.19 177.91 C-98.19 180.26 -98.21 182.61 -98.22 184.95 C-98.23 186.45 -98.23 187.95 -98.23 189.45 C-98.24 190.15 -98.24 190.85 -98.25 191.57 C-98.23 195.26 -97.92 197.84 -96 201 C-95.62 203.11 -95.62 203.11 -95.44 205.19 C-95.43 208.78 -95.43 208.78 -94 210 C-93.61 211.85 -93.26 213.7 -92.94 215.56 C-92.76 216.57 -92.58 217.59 -92.4 218.63 C-92.27 219.41 -92.14 220.19 -92 221 C-91.34 221 -90.68 221 -90 221 C-89.9 221.56 -89.8 222.11 -89.7 222.69 C-88.35 229.61 -85.9 235.15 -82 241 C-81.34 241 -80.68 241 -80 241 C-79.9 241.72 -79.79 242.44 -79.69 243.19 C-78.93 246.28 -77.84 248.42 -76 251 C-75.34 251 -74.68 251 -74 251 C-73.73 251.72 -73.46 252.44 -73.19 253.19 C-72 256 -70.73 258.48 -69 261 C-68.34 261 -67.68 261 -67 261 C-66.67 261.99 -66.34 262.98 -66 264 C-65.01 264.33 -64.02 264.66 -63 265 C-62.33 266.33 -61.67 267.67 -61 269 C-60.01 269.33 -59.02 269.66 -58 270 C-57.69 270.63 -57.39 271.27 -57.07 271.92 C-55.73 274.53 -54.52 275.06 -51.88 276.25 C-51.15 276.59 -50.43 276.92 -49.68 277.27 C-48.85 277.63 -48.85 277.63 -48 278 C-48 278.66 -48 279.32 -48 280 C-43.48 283.75 -39.47 285.76 -33.82 287.32 C-32 288 -32 288 -31 290 C-29.38 290.74 -27.75 291.48 -26.1 292.14 C-23.85 293.06 -21.65 294.06 -19.44 295.06 C-16.01 296.59 -12.58 297.86 -9 299 C-7.84 299.52 -6.69 300.03 -5.5 300.56 C-0.45 302.53 4.76 302.5 10.12 302.69 C11.07 302.79 12.02 302.9 13 303 C13.33 303.66 13.66 304.32 14 305 C18.24 305.05 22.47 305.09 26.71 305.11 C28.15 305.12 29.59 305.13 31.03 305.15 C33.1 305.18 35.17 305.19 37.24 305.2 C38.49 305.21 39.73 305.22 41.02 305.23 C44.12 305.32 44.12 305.32 46 303 C48.57 302.62 48.57 302.62 51.56 302.44 C55.09 302.5 55.09 302.5 58 301 C60.32 300.72 62.64 300.55 64.97 300.38 C65.64 300.25 66.31 300.13 67 300 C67.33 299.34 67.66 298.68 68 298 C70.32 297.59 72.66 297.26 75 297 C75 296.34 75 295.68 75 295 C76.65 295 78.3 295 80 295 C80.33 294.34 80.66 293.68 81 293 C83.06 292.38 83.06 292.38 85 292 C85 291.34 85 290.68 85 290 C85.76 290.06 86.53 290.12 87.31 290.19 C90.48 289.97 90.98 289.3 93 287 C93.66 287 94.32 287 95 287 C95 286.34 95 285.68 95 285 C95.66 285 96.32 285 97 285 C97.66 284.01 98.32 283.02 99 282 C99.6 281.88 100.2 281.75 100.81 281.62 C103.3 281.11 103.3 281.11 105.5 278.5 C108.01 275.99 108.73 275.65 112 275 C113.77 273.65 113.77 273.65 115 272 C115 271.34 115 270.68 115 270 C115.66 270 116.32 270 117 270 C118.67 268.67 118.67 268.67 120 267 C120 266.34 120 265.68 120 265 C120.66 265 121.32 265 122 265 C124.09 263.35 124.95 262.14 125.88 259.62 C127.29 256.32 129.48 254.52 132 252 C132.71 249.85 132.71 249.85 133 248 C133.66 247.67 134.32 247.34 135 247 C135 246.34 135 245.68 135 245 C135.66 245 136.32 245 137 245 C137.19 244.04 137.19 244.04 137.38 243.06 C137.58 242.38 137.79 241.7 138 241 C138.66 240.67 139.32 240.34 140 240 C140 238.35 140 236.7 140 235 C140.66 235 141.32 235 142 235 C142.19 234.04 142.19 234.04 142.38 233.06 C142.58 232.38 142.79 231.7 143 231 C143.66 230.67 144.32 230.34 145 230 C145 228.35 145 226.7 145 225 C145.66 225 146.32 225 147 225 C147.12 223.87 147.25 222.73 147.38 221.56 C147.58 220.39 147.79 219.21 148 218 C148.66 217.67 149.32 217.34 150 217 C150 214.69 150 212.38 150 210 C150.66 210 151.32 210 152 210 C151.67 208.35 151.34 206.7 151 205 C150.42 205 149.84 204.99 149.24 204.99 C135.15 204.91 121.05 204.82 106.96 204.71 C100.14 204.66 93.32 204.62 86.51 204.58 C79.93 204.54 73.36 204.49 66.78 204.44 C64.27 204.42 61.76 204.41 59.24 204.4 C55.73 204.38 52.22 204.35 48.71 204.32 C47.14 204.32 47.14 204.32 45.54 204.31 C44.59 204.3 43.63 204.29 42.65 204.28 C41.82 204.27 40.99 204.27 40.13 204.26 C38 204 38 204 35 202 C32.79 201.77 32.79 201.77 30.38 201.75 C24.54 201.29 20.29 198.93 16 195 C15.67 194.01 15.34 193.02 15 192 C13.69 190.97 12.35 189.97 11 189 C10.67 188.34 10.34 187.68 10 187 C9.34 187 8.68 187 8 187 C7.71 185.95 7.71 185.95 7.41 184.88 C7.15 183.97 6.89 183.06 6.62 182.12 C6.37 181.22 6.11 180.32 5.85 179.38 C5.14 176.85 5.14 176.85 3 175 C2.74 172.9 2.74 172.9 2.72 170.24 C2.71 169.24 2.7 168.23 2.69 167.2 C2.69 166.09 2.68 164.99 2.68 163.85 C2.67 162.69 2.66 161.53 2.65 160.33 C2.62 156.48 2.6 152.63 2.59 148.77 C2.57 146.11 2.55 143.44 2.53 140.78 C2.48 134.47 2.44 128.16 2.41 121.86 C2.37 114.68 2.32 107.5 2.27 100.32 C2.17 85.54 2.08 70.77 2 56 C-2.18 54.81 -2.18 54.81 -6 57 Z " fill="#DD9A35" transform="translate(247,222)"/>
<path d="M0 0 C3.3 0 6.6 0 10 0 C10.33 0.99 10.66 1.98 11 3 C13.31 3 15.62 3 18 3 C18 3.66 18 4.32 18 5 C20.31 5 22.62 5 25 5 C25.33 5.99 25.66 6.98 26 8 C28.31 8 30.62 8 33 8 C33 8.66 33 9.32 33 10 C34.14 9.97 34.14 9.97 35.31 9.94 C38 10 38 10 41 11 C41 11.66 41 12.32 41 13 C42.05 13.12 43.1 13.25 44.19 13.38 C47.54 13.93 49.92 14.65 53 16 C56.8 17.5 60.57 18.88 64.5 20 C67.12 20.75 69.54 21.57 72.06 22.56 C74.63 23.56 76.67 24.11 79.44 24.56 C80.28 24.71 81.13 24.85 82 25 C82.33 25.66 82.66 26.32 83 27 C85.24 27.88 85.24 27.88 87.88 28.56 C88.76 28.81 89.64 29.06 90.55 29.32 C91.36 29.54 92.17 29.77 93 30 C93.99 30.33 94.98 30.66 96 31 C96 31.66 96 32.32 96 33 C98.31 33 100.62 33 103 33 C103 33.66 103 34.32 103 35 C105.31 35 107.62 35 110 35 C110.33 35.99 110.66 36.98 111 38 C111.83 37.9 112.65 37.79 113.5 37.69 C118.15 38.1 121.45 39.99 125 43 C125.33 43.99 125.66 44.98 126 46 C126.96 46.96 126.96 46.96 127.94 47.94 C130.62 50.62 131.88 52.65 132.23 56.47 C132.22 57.37 132.21 58.28 132.2 59.2 C132.19 60.18 132.18 61.16 132.18 62.17 C132.16 63.19 132.14 64.2 132.12 65.25 C132.12 66.28 132.11 67.31 132.1 68.38 C132.07 70.92 132.04 73.46 132 76 C131.34 76 130.68 76 130 76 C129.88 77.18 129.75 78.35 129.62 79.56 C129.14 83.54 128.19 87.18 127 91 C126.34 91 125.68 91 125 91 C124.67 93.31 124.34 95.62 124 98 C123.34 98 122.68 98 122 98 C122 99.65 122 101.3 122 103 C121.34 103 120.68 103 120 103 C119.67 105.64 119.34 108.28 119 111 C118.34 111 117.68 111 117 111 C117 113.31 117 115.62 117 118 C116.34 118 115.68 118 115 118 C114.67 120.64 114.34 123.28 114 126 C113.34 126 112.68 126 112 126 C112 128.31 112 130.62 112 133 C111.34 133 110.68 133 110 133 C109.67 135.64 109.34 138.28 109 141 C108.34 141 107.68 141 107 141 C106.87 141.69 106.74 142.37 106.61 143.08 C104.82 151.61 102.19 159.84 98.82 167.87 C97.79 170.54 97.3 173.16 97 176 C96.34 176 95.68 176 95 176 C95 177.32 95 178.64 95 180 C93.36 181.78 93.36 181.78 91.19 183.5 C88.91 185.33 87.14 186.8 85.49 189.22 C85 189.81 84.51 190.39 84 191 C82.68 191 81.36 191 80 191 C80 191.66 80 192.32 80 193 C61.66 193.96 61.66 193.96 53 188 C53 187.34 53 186.68 53 186 C52.07 185.63 52.07 185.63 51.12 185.25 C48.6 183.77 47.99 182.72 47 180 C47 179.01 47 178.02 47 177 C46.01 176.67 45.02 176.34 44 176 C43.95 173.21 43.91 170.42 43.88 167.62 C43.86 166.83 43.84 166.04 43.82 165.22 C43.81 163.15 43.9 161.07 44 159 C44.66 158.34 45.32 157.68 46 157 C46.57 154.85 47.06 152.68 47.5 150.5 C48.78 144.22 48.78 144.22 51 142 C51.57 139.89 52.06 137.76 52.5 135.62 C53.3 131.75 54.13 128.48 56 125 C56.38 123.34 56.72 121.68 57 120 C57.66 120 58.32 120 59 120 C59 119.01 59 118.02 59 117 C55.27 118.12 55.27 118.12 53 121 C51.02 121 49.04 121 47 121 C47 121.66 47 122.32 47 123 C43.27 125.03 41.33 126 37 126 C37 126.66 37 127.32 37 128 C33.27 130.03 31.33 131 27 131 C27 131.66 27 132.32 27 133 C23.58 135.54 21.24 136.36 17 136 C17 136.66 17 137.32 17 138 C14.69 138 12.38 138 10 138 C9.67 138.99 9.34 139.98 9 141 C7.68 141 6.36 141 5 141 C5 141.66 5 142.32 5 143 C3.35 143 1.7 143 0 143 C-0.33 143.99 -0.66 144.98 -1 146 C-2.32 146 -3.64 146 -5 146 C-5 146.66 -5 147.32 -5 148 C-6.65 148 -8.3 148 -10 148 C-10.33 148.99 -10.66 149.98 -11 151 C-12.32 151 -13.64 151 -15 151 C-15 151.66 -15 152.32 -15 153 C-16.65 153 -18.3 153 -20 153 C-20.33 153.99 -20.66 154.98 -21 156 C-22.32 156 -23.64 156 -25 156 C-25 156.66 -25 157.32 -25 158 C-26.65 158 -28.3 158 -30 158 C-30.33 158.99 -30.66 159.98 -31 161 C-32.32 161 -33.64 161 -35 161 C-35 161.66 -35 162.32 -35 163 C-39.32 164.1 -43.62 165.18 -48 166 C-48 166.66 -48 167.32 -48 168 C-51.73 170.03 -53.67 171 -58 171 C-58 171.66 -58 172.32 -58 173 C-61.73 175.03 -63.67 176 -68 176 C-68 176.66 -68 177.32 -68 178 C-71.73 180.03 -73.67 181 -78 181 C-78 181.66 -78 182.32 -78 183 C-81.42 185.54 -83.76 186.36 -88 186 C-88 186.66 -88 187.32 -88 188 C-90.31 188 -92.62 188 -95 188 C-95.33 188.99 -95.66 189.98 -96 191 C-97.32 191 -98.64 191 -100 191 C-100 191.66 -100 192.32 -100 193 C-101.65 193 -103.3 193 -105 193 C-105.33 193.99 -105.66 194.98 -106 196 C-107.32 196 -108.64 196 -110 196 C-110 196.66 -110 197.32 -110 198 C-111.65 198 -113.3 198 -115 198 C-115.33 198.99 -115.66 199.98 -116 201 C-117.32 201 -118.64 201 -120 201 C-120 201.66 -120 202.32 -120 203 C-121.65 203 -123.3 203 -125 203 C-125.33 203.99 -125.66 204.98 -126 206 C-127.32 206 -128.64 206 -130 206 C-130 206.66 -130 207.32 -130 208 C-131.65 208 -133.3 208 -135 208 C-135.33 208.99 -135.66 209.98 -136 211 C-137.32 211 -138.64 211 -140 211 C-140 211.66 -140 212.32 -140 213 C-141.65 213 -143.3 213 -145 213 C-145 213.66 -145 214.32 -145 215 C-147.64 215.33 -150.28 215.66 -153 216 C-153 216.66 -153 217.32 -153 218 C-156.73 220.03 -158.67 221 -163 221 C-163 221.66 -163 222.32 -163 223 C-166.73 225.03 -168.67 226 -173 226 C-173 226.66 -173 227.32 -173 228 C-176.73 230.03 -178.67 231 -183 231 C-183 231.66 -183 232.32 -183 233 C-186.42 235.54 -188.76 236.36 -193 236 C-193.33 236.99 -193.66 237.98 -194 239 C-194.99 238.67 -195.98 238.34 -197 238 C-197 238.66 -197 239.32 -197 240 C-199.64 240.33 -202.28 240.66 -205 241 C-205 241.66 -205 242.32 -205 243 C-206.65 243 -208.3 243 -210 243 C-210.33 243.99 -210.66 244.98 -211 246 C-212.32 246 -213.64 246 -215 246 C-215 246.66 -215 247.32 -215 248 C-216.65 248 -218.3 248 -220 248 C-220.33 248.99 -220.66 249.98 -221 251 C-222.32 251 -223.64 251 -225 251 C-225 251.66 -225 252.32 -225 253 C-226.65 253 -228.3 253 -230 253 C-230.33 253.99 -230.66 254.98 -231 256 C-232.32 256 -233.64 256 -235 256 C-235 256.66 -235 257.32 -235 258 C-236.65 258 -238.3 258 -240 258 C-240.33 258.99 -240.66 259.98 -241 261 C-242.32 261 -243.64 261 -245 261 C-245 261.66 -245 262.32 -245 263 C-246.65 263 -248.3 263 -250 263 C-250 263.66 -250 264.32 -250 265 C-252.64 265.33 -255.28 265.66 -258 266 C-258 266.66 -258 267.32 -258 268 C-261.73 270.03 -263.67 271 -268 271 C-268 271.66 -268 272.32 -268 273 C-271.73 275.03 -273.67 276 -278 276 C-278 276.66 -278 277.32 -278 278 C-281.73 280.03 -283.67 281 -288 281 C-288 281.66 -288 282.32 -288 283 C-291.42 285.54 -293.76 286.36 -298 286 C-298.33 286.99 -298.66 287.98 -299 289 C-299.99 288.67 -300.98 288.34 -302 288 C-302 288.66 -302 289.32 -302 290 C-304.64 290.33 -307.28 290.66 -310 291 C-310 291.66 -310 292.32 -310 293 C-311.65 293 -313.3 293 -315 293 C-315.33 293.99 -315.66 294.98 -316 296 C-317.32 296 -318.64 296 -320 296 C-320 296.66 -320 297.32 -320 298 C-321.65 298 -323.3 298 -325 298 C-325.33 298.99 -325.66 299.98 -326 301 C-327.32 301 -328.64 301 -330 301 C-330 301.66 -330 302.32 -330 303 C-331.65 303 -333.3 303 -335 303 C-335.33 303.99 -335.66 304.98 -336 306 C-337.32 306 -338.64 306 -340 306 C-340 306.66 -340 307.32 -340 308 C-341.65 308 -343.3 308 -345 308 C-345.33 308.99 -345.66 309.98 -346 311 C-347.32 311 -348.64 311 -350 311 C-350 311.66 -350 312.32 -350 313 C-351.65 313 -353.3 313 -355 313 C-355 313.66 -355 314.32 -355 315 C-357.64 315.33 -360.28 315.66 -363 316 C-363 316.66 -363 317.32 -363 318 C-366.73 320.03 -368.67 321 -373 321 C-373 321.66 -373 322.32 -373 323 C-376.73 325.03 -378.67 326 -383 326 C-383 326.66 -383 327.32 -383 328 C-386.73 330.03 -388.67 331 -393 331 C-393 331.66 -393 332.32 -393 333 C-396.42 335.54 -398.76 336.36 -403 336 C-403.33 336.99 -403.66 337.98 -404 339 C-404.99 338.67 -405.98 338.34 -407 338 C-407 338.66 -407 339.32 -407 340 C-409.64 340.33 -412.28 340.66 -415 341 C-415 341.66 -415 342.32 -415 343 C-416.65 343 -418.3 343 -420 343 C-420.33 343.99 -420.66 344.98 -421 346 C-422.32 346 -423.64 346 -425 346 C-425 346.66 -425 347.32 -425 348 C-426.65 348 -428.3 348 -430 348 C-430.33 348.99 -430.66 349.98 -431 351 C-432.32 351 -433.64 351 -435 351 C-435 351.66 -435 352.32 -435 353 C-438.52 353.12 -442.04 353.19 -445.56 353.25 C-446.55 353.28 -447.54 353.32 -448.56 353.35 C-454.96 353.44 -458.82 352.84 -464 349 C-464.33 348.34 -464.66 347.68 -465 347 C-465.99 346.67 -466.98 346.34 -468 346 C-468 344.68 -468 343.36 -468 342 C-468.99 341.67 -469.98 341.34 -471 341 C-474.57 334.57 -473.73 325.61 -472.61 318.52 C-470.88 312.92 -466.7 308.39 -462 305 C-460.68 305 -459.36 305 -458 305 C-458 304.34 -458 303.68 -458 303 C-456.35 303 -454.7 303 -453 303 C-452.67 302.01 -452.34 301.02 -452 300 C-450.68 300 -449.36 300 -448 300 C-448 299.34 -448 298.68 -448 298 C-446.35 298 -444.7 298 -443 298 C-442.67 297.01 -442.34 296.02 -442 295 C-440.68 295 -439.36 295 -438 295 C-438 294.34 -438 293.68 -438 293 C-436.35 293 -434.7 293 -433 293 C-432.67 292.01 -432.34 291.02 -432 290 C-430.68 290 -429.36 290 -428 290 C-428 289.34 -428 288.68 -428 288 C-426.35 288 -424.7 288 -423 288 C-422.67 287.01 -422.34 286.02 -422 285 C-420.68 285 -419.36 285 -418 285 C-418 284.34 -418 283.68 -418 283 C-416.35 283 -414.7 283 -413 283 C-412.67 282.01 -412.34 281.02 -412 280 C-408.12 278.61 -405.14 278 -401 278 C-400.67 277.01 -400.34 276.02 -400 275 C-399.34 275 -398.68 275 -398 275 C-398 274.34 -398 273.68 -398 273 C-395.69 273 -393.38 273 -391 273 C-390.67 272.01 -390.34 271.02 -390 270 C-389.34 270 -388.68 270 -388 270 C-388 269.34 -388 268.68 -388 268 C-385.69 268 -383.38 268 -381 268 C-380.67 267.01 -380.34 266.02 -380 265 C-379.34 265 -378.68 265 -378 265 C-378 264.34 -378 263.68 -378 263 C-375.69 263 -373.38 263 -371 263 C-370.67 262.01 -370.34 261.02 -370 260 C-366.68 258.29 -364.82 258 -361 258 C-360.67 257.01 -360.34 256.02 -360 255 C-357.69 255 -355.38 255 -353 255 C-353 254.34 -353 253.68 -353 253 C-351.35 253 -349.7 253 -348 253 C-347.67 252.01 -347.34 251.02 -347 250 C-345.68 250 -344.36 250 -343 250 C-343 249.34 -343 248.68 -343 248 C-341.35 248 -339.7 248 -338 248 C-337.67 247.01 -337.34 246.02 -337 245 C-335.68 245 -334.36 245 -333 245 C-333 244.34 -333 243.68 -333 243 C-331.35 243 -329.7 243 -328 243 C-327.67 242.01 -327.34 241.02 -327 240 C-325.68 240 -324.36 240 -323 240 C-323 239.34 -323 238.68 -323 238 C-321.35 238 -319.7 238 -318 238 C-317.67 237.01 -317.34 236.02 -317 235 C-315.68 235 -314.36 235 -313 235 C-313 234.34 -313 233.68 -313 233 C-311.35 233 -309.7 233 -308 233 C-307.67 232.01 -307.34 231.02 -307 230 C-303.12 228.61 -300.14 228 -296 228 C-295.67 227.01 -295.34 226.02 -295 225 C-294.34 225 -293.68 225 -293 225 C-293 224.34 -293 223.68 -293 223 C-290.69 223 -288.38 223 -286 223 C-285.67 222.01 -285.34 221.02 -285 220 C-284.34 220 -283.68 220 -283 220 C-283 219.34 -283 218.68 -283 218 C-280.69 218 -278.38 218 -276 218 C-275.67 217.01 -275.34 216.02 -275 215 C-274.34 215 -273.68 215 -273 215 C-273 214.34 -273 213.68 -273 213 C-270.69 213 -268.38 213 -266 213 C-265.67 212.01 -265.34 211.02 -265 210 C-261.68 208.29 -259.82 208 -256 208 C-255.67 207.01 -255.34 206.02 -255 205 C-252.69 205 -250.38 205 -248 205 C-248 204.34 -248 203.68 -248 203 C-246.35 203 -244.7 203 -243 203 C-242.67 202.01 -242.34 201.02 -242 200 C-240.68 200 -239.36 200 -238 200 C-238 199.34 -238 198.68 -238 198 C-236.35 198 -234.7 198 -233 198 C-232.67 197.01 -232.34 196.02 -232 195 C-230.68 195 -229.36 195 -228 195 C-228 194.34 -228 193.68 -228 193 C-226.35 193 -224.7 193 -223 193 C-222.67 192.01 -222.34 191.02 -222 190 C-220.68 190 -219.36 190 -218 190 C-218 189.34 -218 188.68 -218 188 C-216.35 188 -214.7 188 -213 188 C-212.67 187.01 -212.34 186.02 -212 185 C-210.68 185 -209.36 185 -208 185 C-208 184.34 -208 183.68 -208 183 C-206.35 183 -204.7 183 -203 183 C-202.34 181.68 -201.68 180.36 -201 179 C-200.01 179.33 -199.02 179.66 -198 180 C-198 179.34 -198 178.68 -198 178 C-195.69 178 -193.38 178 -191 178 C-190.67 177.01 -190.34 176.02 -190 175 C-186.68 173.29 -184.82 173 -181 173 C-180.67 172.01 -180.34 171.02 -180 170 C-179.34 170 -178.68 170 -178 170 C-178 169.34 -178 168.68 -178 168 C-175.69 168 -173.38 168 -171 168 C-170.67 167.01 -170.34 166.02 -170 165 C-169.34 165 -168.68 165 -168 165 C-168 164.34 -168 163.68 -168 163 C-165.69 163 -163.38 163 -161 163 C-160.67 162.01 -160.34 161.02 -160 160 C-156.68 158.29 -154.82 158 -151 158 C-150.67 157.01 -150.34 156.02 -150 155 C-147.69 155 -145.38 155 -143 155 C-143 154.34 -143 153.68 -143 153 C-141.35 153 -139.7 153 -138 153 C-137.67 152.01 -137.34 151.02 -137 150 C-135.68 150 -134.36 150 -133 150 C-133 149.34 -133 148.68 -133 148 C-131.35 148 -129.7 148 -128 148 C-127.67 147.01 -127.34 146.02 -127 145 C-125.68 145 -124.36 145 -123 145 C-123 144.34 -123 143.68 -123 143 C-121.35 143 -119.7 143 -118 143 C-117.67 142.01 -117.34 141.02 -117 140 C-115.68 140 -114.36 140 -113 140 C-113 139.34 -113 138.68 -113 138 C-111.35 138 -109.7 138 -108 138 C-107.67 137.01 -107.34 136.02 -107 135 C-105.68 135 -104.36 135 -103 135 C-103 134.34 -103 133.68 -103 133 C-101.35 133 -99.7 133 -98 133 C-97.34 131.68 -96.68 130.36 -96 129 C-95.01 129.33 -94.02 129.66 -93 130 C-93 129.34 -93 128.68 -93 128 C-90.69 128 -88.38 128 -86 128 C-85.67 127.01 -85.34 126.02 -85 125 C-81.68 123.29 -79.82 123 -76 123 C-75.67 122.01 -75.34 121.02 -75 120 C-74.34 120 -73.68 120 -73 120 C-73 119.34 -73 118.68 -73 118 C-70.69 118 -68.38 118 -66 118 C-65.67 117.01 -65.34 116.02 -65 115 C-64.34 115 -63.68 115 -63 115 C-63 114.34 -63 113.68 -63 113 C-60.69 113 -58.38 113 -56 113 C-55.67 112.01 -55.34 111.02 -55 110 C-54.34 110 -53.68 110 -53 110 C-53 109.34 -53 108.68 -53 108 C-50.69 108 -48.38 108 -46 108 C-45.67 107.01 -45.34 106.02 -45 105 C-44.34 105 -43.68 105 -43 105 C-43 104.34 -43 103.68 -43 103 C-42.08 102.94 -42.08 102.94 -41.14 102.89 C-40.33 102.82 -39.52 102.76 -38.69 102.69 C-37.89 102.63 -37.09 102.57 -36.26 102.51 C-33.64 101.92 -32.69 101.04 -31 99 C-30.01 99.33 -29.02 99.66 -28 100 C-28 99.34 -28 98.68 -28 98 C-26.35 98 -24.7 98 -23 98 C-22.67 97.01 -22.34 96.02 -22 95 C-20.68 95 -19.36 95 -18 95 C-18 94.34 -18 93.68 -18 93 C-16.35 93 -14.7 93 -13 93 C-12.67 92.01 -12.34 91.02 -12 90 C-10.68 90 -9.36 90 -8 90 C-8 89.34 -8 88.68 -8 88 C-6.35 88 -4.7 88 -3 88 C-2.67 87.01 -2.34 86.02 -2 85 C-0.68 85 0.64 85 2 85 C2 84.34 2 83.68 2 83 C3.65 83 5.3 83 7 83 C7.66 81.68 8.32 80.36 9 79 C9.99 79.33 10.98 79.66 12 80 C12 79.34 12 78.68 12 78 C14.31 78 16.62 78 19 78 C19.33 77.01 19.66 76.02 20 75 C20.66 75 21.32 75 22 75 C22 74.34 22 73.68 22 73 C24.31 73 26.62 73 29 73 C29.33 72.01 29.66 71.02 30 70 C31.32 70 32.64 70 34 70 C33.29 66.92 33.29 66.92 31 65.5 C27.77 63.89 24.57 62.78 21.13 61.69 C19.52 61.17 17.94 60.57 16.38 59.94 C12.13 58.26 7.7 57.18 3.29 56.04 C2.08 55.71 0.87 55.39 -0.38 55.06 C-1.6 54.74 -2.82 54.43 -4.09 54.1 C-5.05 53.74 -6.01 53.37 -7 53 C-7.33 52.01 -7.66 51.02 -8 50 C-11.51 48.77 -11.51 48.77 -15 48 C-15 47.34 -15 46.68 -15 46 C-15.66 46 -16.32 46 -17 46 C-17.1 45.36 -17.21 44.72 -17.31 44.06 C-17.54 43.38 -17.77 42.7 -18 42 C-18.99 41.67 -19.98 41.34 -21 41 C-24.58 34.55 -23.69 25.67 -22.64 18.56 C-20.78 12.34 -15.68 8.24 -11 4 C-10.01 4.33 -9.02 4.66 -8 5 C-8 4.34 -8 3.68 -8 3 C-5.69 3 -3.38 3 -1 3 C-0.67 2.01 -0.34 1.02 0 0 Z " fill="#DD9A35" transform="translate(990,109)"/>
<path d="M0 0 C11.55 0 23.1 0 35 0 C35.5 1.49 35.5 1.49 36 3 C37.28 2.98 37.28 2.98 38.59 2.96 C39.69 2.96 40.8 2.95 41.94 2.94 C43.04 2.93 44.14 2.91 45.28 2.9 C48 3 48 3 49 4 C49.66 3.67 50.32 3.34 51 3 C51 3.66 51 4.32 51 5 C52.42 4.94 52.42 4.94 53.88 4.88 C57 5 57 5 59 7 C61.03 7.61 61.03 7.61 63.31 8 C66.76 8.65 69.77 9.64 73 11 C74.71 11.69 76.42 12.38 78.12 13.06 C78.97 13.4 79.82 13.75 80.7 14.1 C82.44 14.78 84.22 15.41 86 16 C86 16.66 86 17.32 86 18 C86.72 18.12 87.44 18.25 88.19 18.38 C90.96 18.99 93.4 19.88 96 21 C96 21.66 96 22.32 96 23 C97.98 23.66 99.96 24.32 102 25 C102 25.66 102 26.32 102 27 C102.85 27.25 103.69 27.5 104.56 27.75 C110.36 29.86 114.62 32.62 119 37 C121.14 37.79 121.14 37.79 123 38 C123.33 39.65 123.66 41.3 124 43 C125.32 43 126.64 43 128 43 C128.08 43.78 128.16 44.57 128.25 45.38 C128.71 48.14 128.71 48.14 131 49.12 C131.99 49.56 131.99 49.56 133 50 C133.33 50.99 133.66 51.98 134 53 C134.66 53.33 135.32 53.66 136 54 C136.66 54.33 137.32 54.66 138 55 C138.33 55.99 138.66 56.98 139 58 C140.32 58 141.64 58 143 58 C143.08 58.78 143.16 59.57 143.25 60.38 C143.5 61.24 143.75 62.11 144 63 C144.93 63.46 144.93 63.46 145.88 63.94 C148.98 65.49 149.56 67.93 151 71 C151.66 71.33 152.32 71.66 153 72 C153 72.66 153 73.32 153 74 C153.99 74.33 154.98 74.66 156 75 C157.5 77.23 158.83 79.41 160.12 81.75 C160.48 82.37 160.84 82.99 161.21 83.63 C163.14 87.06 164.51 90.09 165 94 C165.66 94 166.32 94 167 94 C169.03 97.73 170 99.67 170 104 C170.66 104 171.32 104 172 104 C175.84 110.83 178.21 117.62 180.2 125.19 C180.72 127.88 180.72 127.88 182 129 C182.32 131.06 182.51 133.12 182.72 135.19 C182.82 137.02 182.82 137.02 184 138 C184.58 141.09 185.03 144.2 185.5 147.31 C185.72 149.91 185.72 149.91 187 151 C187.14 153.84 187.21 156.65 187.24 159.49 C187.25 160.34 187.25 161.2 187.26 162.08 C187.28 163.89 187.29 165.7 187.3 167.52 C187.31 170.29 187.36 173.06 187.4 175.83 C187.41 177.59 187.42 179.35 187.43 181.11 C187.44 181.94 187.46 182.77 187.48 183.63 C187.46 189.44 187.46 189.44 185.02 192.41 C184.35 192.94 183.69 193.46 183 194 C182.21 196.14 182.21 196.14 182 198 C181.34 198 180.68 198 180 198 C179.67 198.99 179.34 199.98 179 201 C177.68 201 176.36 201 175 201 C175 201.66 175 202.32 175 203 C173.35 203 171.7 203 170 203 C170 203.66 170 204.32 170 205 C155.33 206.04 140.71 206.15 126.01 206.13 C123.53 206.13 121.04 206.13 118.56 206.14 C113.39 206.14 108.21 206.14 103.03 206.13 C96.46 206.12 89.88 206.13 83.3 206.13 C78.18 206.14 73.06 206.14 67.95 206.13 C65.52 206.13 63.1 206.13 60.68 206.14 C49.42 206.14 38.17 206.11 26.92 205.62 C25.75 205.57 25.75 205.57 24.56 205.52 C19.22 205.25 14.19 204.3 9 203 C9 202.34 9 201.68 9 201 C7.82 200.63 7.82 200.63 6.62 200.25 C4 199 4 199 3.06 197 C2.11 194.65 2.11 194.65 -1 194 C-4 193 -4 193 -5.25 190.94 C-5.5 190.3 -5.75 189.66 -6 189 C-6.66 188.67 -7.32 188.34 -8 188 C-8 187.01 -8 186.02 -8 185 C-8.62 184.94 -9.24 184.88 -9.88 184.81 C-12 184 -12 184 -13.12 181.5 C-13.41 180.68 -13.7 179.85 -14 179 C-14.66 178.67 -15.32 178.34 -16 178 C-17.64 173.36 -18.25 169.25 -18.24 164.35 C-18.24 163.05 -18.25 161.76 -18.25 160.42 C-18.24 159 -18.23 157.58 -18.23 156.16 C-18.23 154.65 -18.23 153.14 -18.23 151.64 C-18.23 147.56 -18.22 143.48 -18.2 139.4 C-18.19 135.13 -18.19 130.86 -18.19 126.59 C-18.18 118.51 -18.16 110.43 -18.14 102.35 C-18.12 93.15 -18.11 83.95 -18.1 74.75 C-18.08 55.84 -18.04 36.92 -18 18 C-17.34 18 -16.68 18 -16 18 C-16.33 16.68 -16.66 15.36 -17 14 C-16.2 13.31 -16.2 13.31 -15.39 12.61 C-14.33 11.69 -14.33 11.69 -13.25 10.75 C-12.52 10.11 -11.79 9.48 -11.03 8.82 C-8.9 6.96 -8.9 6.96 -6.75 4.56 C-5 3 -5 3 -1 3 C-0.67 2.01 -0.34 1.02 0 0 Z M35 56 C34.12 61.29 33.85 66.38 33.85 71.73 C33.85 72.58 33.85 73.42 33.84 74.29 C33.84 77.07 33.83 79.84 33.83 82.61 C33.83 84.54 33.83 86.48 33.82 88.41 C33.82 92.45 33.81 96.49 33.81 100.53 C33.81 105.72 33.8 110.9 33.78 116.09 C33.77 120.07 33.77 124.06 33.77 128.05 C33.77 129.96 33.77 131.87 33.76 133.78 C33.75 136.45 33.75 139.12 33.76 141.78 C33.75 142.58 33.75 143.37 33.74 144.18 C33.76 147.99 33.83 149.75 36 153 C39.04 153.29 41.89 153.39 44.93 153.36 C46.32 153.36 46.32 153.36 47.74 153.36 C50.8 153.37 53.87 153.35 56.94 153.33 C59.07 153.33 61.19 153.32 63.32 153.32 C67.77 153.32 72.23 153.3 76.68 153.28 C82.41 153.25 88.14 153.24 93.86 153.24 C98.25 153.23 102.64 153.22 107.03 153.21 C109.14 153.21 111.25 153.2 113.36 153.2 C116.31 153.19 119.25 153.18 122.2 153.16 C123.52 153.16 123.52 153.16 124.87 153.16 C128.75 153.51 128.75 153.51 132 152 C132.25 149.54 132.25 149.54 132 147 C131.34 146.34 130.68 145.68 130 145 C129.13 141.68 128.47 138.33 127.78 134.97 C127.24 131.91 127.24 131.91 125 130 C124.16 127.99 123.48 125.94 122.78 123.88 C122.06 121.8 122.06 121.8 120 120 C119.53 118.99 119.05 117.98 118.56 116.94 C117.28 113.71 117.28 113.71 114 113 C113.92 112.11 113.83 111.23 113.75 110.31 C112.88 106.49 111.56 104.92 109 102 C108.32 100.93 107.64 99.85 106.94 98.75 C105.23 95.75 105.23 95.75 102 95 C101.33 93.67 100.67 92.33 100 91 C98.51 90.5 98.51 90.5 97 90 C96.33 88.67 95.67 87.33 95 86 C94.01 85.67 93.02 85.34 92 85 C91.73 84.38 91.46 83.76 91.19 83.12 C89.49 80.08 87.09 79.49 84 78 C83.32 77.3 82.64 76.6 81.94 75.88 C79.65 73.66 78.11 73.35 75 73 C75 72.34 75 71.68 75 71 C74.24 70.73 73.47 70.46 72.69 70.19 C70.02 69.01 69.01 68.01 67 66 C63.83 64.2 60.95 62.99 57.44 62 C54 61 54 61 51.74 59.51 C48.37 57.65 45.5 57.28 41.69 56.81 C40.43 56.65 39.18 56.5 37.89 56.33 C36.93 56.22 35.98 56.11 35 56 Z " fill="#DD9A35" transform="translate(365,129)"/>
<path d="M0 0 C43.56 0 87.12 0 132 0 C132.33 0.99 132.66 1.98 133 3 C134.18 3.12 134.18 3.12 135.38 3.25 C136.24 3.5 137.11 3.75 138 4 C139.06 5.94 139.06 5.94 140 8 C140.68 8.31 141.36 8.62 142.06 8.94 C143.02 9.46 143.02 9.46 144 10 C144.75 12.63 144.75 12.63 145 15 C145.99 15.33 146.98 15.66 148 16 C148 23.26 148 30.52 148 38 C147.01 38.33 146.02 38.66 145 39 C145 40.65 145 42.3 145 44 C144.34 44 143.68 44 143 44 C142.67 44.99 142.34 45.98 142 47 C141.34 47 140.68 47 140 47 C140 47.66 140 48.32 140 49 C138.35 49 136.7 49 135 49 C134.67 49.99 134.34 50.98 134 52 C132.68 52 131.36 52 130 52 C130 52.66 130 53.32 130 54 C113.41 54.07 96.83 54.12 80.24 54.16 C72.54 54.17 64.84 54.19 57.14 54.23 C50.43 54.26 43.71 54.28 37 54.28 C33.45 54.29 29.89 54.3 26.34 54.32 C22.37 54.34 18.4 54.34 14.43 54.34 C13.26 54.35 12.08 54.36 10.87 54.37 C5.09 54.35 0.88 54.24 -4 51 C-4 50.34 -4 49.68 -4 49 C-4.78 48.92 -5.57 48.84 -6.38 48.75 C-9 48 -9 48 -10.12 46 C-10.41 45.34 -10.7 44.68 -11 44 C-11.99 43.67 -12.98 43.34 -14 43 C-14 41.68 -14 40.36 -14 39 C-14.66 39 -15.32 39 -16 39 C-16.09 35.29 -16.14 31.58 -16.19 27.88 C-16.21 26.83 -16.24 25.78 -16.26 24.7 C-16.32 18.95 -16.21 14.86 -13 10 C-12.34 10 -11.68 10 -11 10 C-11 9.34 -11 8.68 -11 8 C-10.34 8 -9.68 8 -9 8 C-8.67 7.01 -8.34 6.02 -8 5 C-7.34 5 -6.68 5 -6 5 C-6 4.34 -6 3.68 -6 3 C-4.35 3 -2.7 3 -1 3 C-0.67 2.01 -0.34 1.02 0 0 Z " fill="#3F200A" transform="translate(518,859)"/>
<path d="M0 0 C169.6 -0.08 169.6 -0.08 313.01 -0.13 C314.57 -0.13 316.13 -0.13 317.69 -0.13 C350.4 -0.14 383.12 -0.15 415.84 -0.15 C432.27 -0.16 448.7 -0.16 465.14 -0.16 C467.62 -0.16 470.09 -0.17 472.57 -0.17 C510.76 -0.18 548.94 -0.19 587.12 -0.21 C587.95 -0.21 588.77 -0.21 589.61 -0.21 C602.86 -0.21 616.1 -0.22 629.34 -0.23 C667.47 -0.25 705.6 -0.27 743.73 -0.27 C744.52 -0.27 745.3 -0.27 746.11 -0.27 C763.31 -0.28 780.51 -0.28 797.72 -0.28 C804.64 -0.28 811.56 -0.28 818.48 -0.28 C819.24 -0.28 820 -0.28 820.78 -0.28 C845.2 -0.29 869.63 -0.3 894.06 -0.32 C918.66 -0.34 943.26 -0.35 967.85 -0.34 C971.25 -0.34 974.64 -0.34 978.04 -0.34 C979.04 -0.34 979.04 -0.34 980.05 -0.34 C991.26 -0.34 1002.46 -0.35 1013.66 -0.36 C1023.39 -0.37 1033.12 -0.37 1042.85 -0.37 C1048.4 -0.36 1053.96 -0.36 1059.51 -0.37 C1064.55 -0.39 1069.6 -0.39 1074.64 -0.37 C1076.46 -0.37 1078.28 -0.37 1080.1 -0.38 C1082.56 -0.39 1085.02 -0.38 1087.48 -0.37 C1088.19 -0.38 1088.91 -0.39 1089.64 -0.4 C1094.18 -0.35 1095.13 0.09 1099 3 C732.7 3 366.4 3 -11 3 C-11 2.67 -11 2.34 -11 2 C-5.56 1.5 -5.56 1.5 0 1 C0 0.67 0 0.34 0 0 Z " fill="#1D0601" transform="translate(96,7)"/>
<path d="M0 0 C6.27 0 12.54 0 19 0 C19.5 1.49 19.5 1.49 20 3 C21.65 3 23.3 3 25 3 C25 3.66 25 4.32 25 5 C25.99 5.33 26.98 5.66 28 6 C28 6.66 28 7.32 28 8 C28.66 8 29.32 8 30 8 C30 8.66 30 9.32 30 10 C30.99 10.33 31.98 10.66 33 11 C34.89 14.56 35.24 17.53 35.2 21.52 C35.19 22.54 35.18 23.56 35.18 24.62 C35.16 25.67 35.14 26.73 35.12 27.81 C35.12 28.89 35.11 29.96 35.1 31.07 C35.07 33.71 35.04 36.36 35 39 C34.34 39 33.68 39 33 39 C32.67 40.65 32.34 42.3 32 44 C31.34 44 30.68 44 30 44 C29.77 44.64 29.55 45.28 29.31 45.94 C28 48 28 48 25.38 48.75 C24.59 48.83 23.81 48.91 23 49 C22.67 49.99 22.34 50.98 22 52 C15.55 55.58 6.22 55.04 -0.76 53.32 C-2.94 52.5 -2.94 52.5 -6 51 C-6 50.34 -6 49.68 -6 49 C-6.64 48.73 -7.28 48.46 -7.94 48.19 C-10 47 -10 47 -11 44 C-11.99 43.67 -12.98 43.34 -14 43 C-14 41.68 -14 40.36 -14 39 C-14.66 39 -15.32 39 -16 39 C-16 37.35 -16 35.7 -16 34 C-16.99 33.67 -17.98 33.34 -19 33 C-19 29.04 -19 25.08 -19 21 C-18.01 20.67 -17.02 20.34 -16 20 C-16 17.69 -16 15.38 -16 13 C-15.34 13 -14.68 13 -14 13 C-13.67 12.01 -13.34 11.02 -13 10 C-12.34 10 -11.68 10 -11 10 C-11 9.34 -11 8.68 -11 8 C-10.34 8 -9.68 8 -9 8 C-8.67 7.01 -8.34 6.02 -8 5 C-7.34 5 -6.68 5 -6 5 C-6 4.34 -6 3.68 -6 3 C-4.35 3 -2.7 3 -1 3 C-0.67 2.01 -0.34 1.02 0 0 Z " fill="#3F200A" transform="translate(743,859)"/>
<path d="M0 0 C0.33 0 0.66 0 1 0 C1 28.71 1 57.42 1 87 C0.67 87 0.34 87 0 87 C0 58.29 0 29.58 0 0 Z " fill="#3F200A" transform="translate(400,192)"/>
<path d="M0 0 C13.86 0 27.72 0 42 0 C42 0.33 42 0.66 42 1 C28.14 1 14.28 1 0 1 C0 0.67 0 0.34 0 0 Z " fill="#3F200A" transform="translate(255,580)"/>
<path d="M0 0 C0.33 0 0.66 0 1 0 C1 11.22 1 22.44 1 34 C0.67 34 0.34 34 0 34 C0 22.78 0 11.56 0 0 Z " fill="#3F200A" transform="translate(150,385)"/>
<path d="M0 0 C0.33 0 0.66 0 1 0 C1 8.91 1 17.82 1 27 C0.67 27 0.34 27 0 27 C0 18.09 0 9.18 0 0 Z " fill="#3F200A" transform="translate(455,398)"/>
<path d="M0 0 C6.6 0 13.2 0 20 0 C20 0.33 20 0.66 20 1 C13.4 1 6.8 1 0 1 C0 0.67 0 0.34 0 0 Z " fill="#3F200A" transform="translate(383,335)"/>
<path d="M0 0 C5.94 0 11.88 0 18 0 C18 0.33 18 0.66 18 1 C12.06 1 6.12 1 0 1 C0 0.67 0 0.34 0 0 Z " fill="#3F200A" transform="translate(517,335)"/>
<path d="M0 0 C3.3 0 6.6 0 10 0 C10 0.33 10 0.66 10 1 C6.7 1 3.4 1 0 1 C0 0.67 0 0.34 0 0 Z " fill="#1D0601" transform="translate(85,7)"/>
<path d="M0 0 C2.97 0 5.94 0 9 0 C9 0.33 9 0.66 9 1 C6.03 1 3.06 1 0 1 C0 0.67 0 0.34 0 0 Z " fill="#3F200A" transform="translate(273,425)"/>
<path d="M0 0 C0.33 0 0.66 0 1 0 C1 2.64 1 5.28 1 8 C0.67 8 0.34 8 0 8 C0 5.36 0 2.72 0 0 Z " fill="#3F200A" transform="translate(550,268)"/>
<path d="M0 0 C0.33 0 0.66 0 1 0 C1 2.31 1 4.62 1 7 C0.67 7 0.34 7 0 7 C0 4.69 0 2.38 0 0 Z " fill="#3F200A" transform="translate(155,433)"/>
<path d="M0 0 C1.98 0 3.96 0 6 0 C6 0.33 6 0.66 6 1 C4.02 1 2.04 1 0 1 C0 0.67 0 0.34 0 0 Z " fill="#3F200A" transform="translate(228,575)"/>
<path d="M0 0 C0.33 0 0.66 0 1 0 C1 1.98 1 3.96 1 6 C0.67 6 0.34 6 0 6 C0 4.02 0 2.04 0 0 Z " fill="#3F200A" transform="translate(450,444)"/>
<path d="M0 0 C1.65 0 3.3 0 5 0 C5 0.33 5 0.66 5 1 C3.35 1 1.7 1 0 1 C0 0.67 0 0.34 0 0 Z " fill="#3F200A" transform="translate(317,575)"/>
<path d="M0 0 C4 1 4 1 4 1 Z " fill="#3F200A" transform="translate(213,570)"/>
<path d="M0 0 C1 4 1 4 1 4 Z " fill="#3F200A" transform="translate(440,473)"/>
<path d="M0 0 C1 4 1 4 1 4 Z " fill="#3F200A" transform="translate(445,461)"/>
<path d="M0 0 C1 4 1 4 1 4 Z " fill="#3F200A" transform="translate(160,448)"/>
<path d="M0 0 C1 4 1 4 1 4 Z " fill="#3F200A" transform="translate(1095,258)"/>
<path d="M0 0 C1 4 1 4 1 4 Z " fill="#3F200A" transform="translate(545,250)"/>
<path d="M0 0 C1 4 1 4 1 4 Z " fill="#3F200A" transform="translate(1100,246)"/>
<path d="M0 0 C1 4 1 4 1 4 Z " fill="#3F200A" transform="translate(1105,231)"/>
<path d="M0 0 C1 4 1 4 1 4 Z " fill="#3F200A" transform="translate(1110,216)"/>
<path d="M0 0 C4 1 4 1 4 1 Z " fill="#3F200A" transform="translate(1005,170)"/>
<path d="M0 0 C4 1 4 1 4 1 Z " fill="#3F200A" transform="translate(990,165)"/>
<path d="M0 0 C3 1 3 1 3 1 Z " fill="#3F200A" transform="translate(337,570)"/>
<path d="M0 0 C3 1 3 1 3 1 Z " fill="#3F200A" transform="translate(349,565)"/>
<path d="M0 0 C3 1 3 1 3 1 Z " fill="#3F200A" transform="translate(579,450)"/>
<path d="M0 0 C3 1 3 1 3 1 Z " fill="#3F200A" transform="translate(632,425)"/>
<path d="M0 0 C3 1 3 1 3 1 Z " fill="#3F200A" transform="translate(684,400)"/>
<path d="M0 0 C3 1 3 1 3 1 Z " fill="#3F200A" transform="translate(737,375)"/>
<path d="" fill="#3F200A" transform="translate(0,0)"/>
<path d="M0 0 C3 1 3 1 3 1 Z " fill="#3F200A" transform="translate(789,350)"/>
<path d="M0 0 C3 1 3 1 3 1 Z " fill="#3F200A" transform="translate(842,325)"/>
<path d="" fill="#3F200A" transform="translate(0,0)"/>
<path d="" fill="#3F200A" transform="translate(0,0)"/>
<path d="" fill="#3F200A" transform="translate(0,0)"/>
<path d="M0 0 C2 1 2 1 2 1 Z " fill="#3F200A" transform="translate(160,540)"/>
<path d="M0 0 C2 1 2 1 2 1 Z " fill="#8E5D20" transform="translate(302,522)"/>
<path d="M0 0 C2 1 2 1 2 1 Z " fill="#3F200A" transform="translate(246,522)"/>
<path d="M0 0 C2 1 2 1 2 1 Z " fill="#DE9B36" transform="translate(347,502)"/>
<path d="" fill="#DE9B36" transform="translate(0,0)"/>
<path d="" fill="#8E5D20" transform="translate(0,0)"/>
<path d="" fill="#DE9B36" transform="translate(0,0)"/>
<path d="M0 0 C2 1 2 1 2 1 Z " fill="#3F200A" transform="translate(370,330)"/>
<path d="" fill="#DE9B36" transform="translate(0,0)"/>
<path d="M0 0 C2 1 2 1 2 1 Z " fill="#3F200A" transform="translate(281,222)"/>
<path d="M0 0 C2 1 2 1 2 1 Z " fill="#3F200A" transform="translate(450,210)"/>
<path d="M0 0 C2 1 2 1 2 1 Z " fill="#8E5D20" transform="translate(959,207)"/>
<path d="" fill="#3F200A" transform="translate(0,0)"/>
<path d="" fill="#8E5D20" transform="translate(0,0)"/>
<path d="" fill="#3F200A" transform="translate(0,0)"/>
<path d="" fill="#3F200A" transform="translate(0,0)"/>
<path d="" fill="#3F200A" transform="translate(0,0)"/>
<path d="" fill="#1D0601" transform="translate(0,0)"/>
<path d="" fill="#3F200A" transform="translate(0,0)"/>
<path d="" fill="#3F200A" transform="translate(0,0)"/>
<path d="" fill="#3F200A" transform="translate(0,0)"/>
<path d="" fill="#3F200A" transform="translate(0,0)"/>
<path d="" fill="#3F200A" transform="translate(0,0)"/>
<path d="" fill="#3F200A" transform="translate(0,0)"/>
<path d="" fill="#3F200A" transform="translate(0,0)"/>
<path d="" fill="#3F200A" transform="translate(0,0)"/>
<path d="" fill="#3F200A" transform="translate(0,0)"/>
<path d="" fill="#3F200A" transform="translate(0,0)"/>
<path d="" fill="#1D0601" transform="translate(0,0)"/>
<path d="" fill="#1D0601" transform="translate(0,0)"/>
<path d="" fill="#1D0601" transform="translate(0,0)"/>
<path d="" fill="#1D0601" transform="translate(0,0)"/>
<path d="" fill="#1D0601" transform="translate(0,0)"/>
<path d="" fill="#1D0601" transform="translate(0,0)"/>
<path d="" fill="#1D0601" transform="translate(0,0)"/>
<path d="" fill="#1D0601" transform="translate(0,0)"/>
<path d="" fill="#1D0601" transform="translate(0,0)"/>
<path d="" fill="#1D0601" transform="translate(0,0)"/>
<path d="" fill="#1D0601" transform="translate(0,0)"/>
<path d="" fill="#1D0601" transform="translate(0,0)"/>
<path d="" fill="#1D0601" transform="translate(0,0)"/>
<path d="" fill="#1D0601" transform="translate(0,0)"/>
<path d="" fill="#1D0601" transform="translate(0,0)"/>
<path d="" fill="#3F200A" transform="translate(0,0)"/>
<path d="" fill="#1D0601" transform="translate(0,0)"/>
<path d="" fill="#1D0601" transform="translate(0,0)"/>
<path d="" fill="#3F200A" transform="translate(0,0)"/>
<path d="" fill="#1D0601" transform="translate(0,0)"/>
<path d="" fill="#1D0601" transform="translate(0,0)"/>
<path d="" fill="#1D0601" transform="translate(0,0)"/>
<path d="" fill="#3F200A" transform="translate(0,0)"/>
<path d="" fill="#DE9B36" transform="translate(0,0)"/>
<path d="" fill="#3F200A" transform="translate(0,0)"/>
<path d="" fill="#3F200A" transform="translate(0,0)"/>
<path d="" fill="#3F200A" transform="translate(0,0)"/>
<path d="" fill="#3F200A" transform="translate(0,0)"/>
<path d="" fill="#1D0601" transform="translate(0,0)"/>
<path d="" fill="#3F200A" transform="translate(0,0)"/>
<path d="" fill="#3F200A" transform="translate(0,0)"/>
<path d="" fill="#3F200A" transform="translate(0,0)"/>
<path d="" fill="#DE9B36" transform="translate(0,0)"/>
<path d="" fill="#DE9B36" transform="translate(0,0)"/>
<path d="" fill="#3F200A" transform="translate(0,0)"/>
<path d="" fill="#3F200A" transform="translate(0,0)"/>
<path d="" fill="#3F200A" transform="translate(0,0)"/>
<path d="" fill="#3F200A" transform="translate(0,0)"/>
<path d="" fill="#3F200A" transform="translate(0,0)"/>
<path d="" fill="#3F200A" transform="translate(0,0)"/>
<path d="" fill="#1D0601" transform="translate(0,0)"/>
<path d="" fill="#1D0601" transform="translate(0,0)"/>
<path d="" fill="#1D0601" transform="translate(0,0)"/>
<path d="" fill="#3F200A" transform="translate(0,0)"/>
<path d="" fill="#3F200A" transform="translate(0,0)"/>
<path d="" fill="#DE9B36" transform="translate(0,0)"/>
<path d="" fill="#3F200A" transform="translate(0,0)"/>
<path d="" fill="#3F200A" transform="translate(0,0)"/>
<path d="" fill="#3F200A" transform="translate(0,0)"/>
<path d="" fill="#3F200A" transform="translate(0,0)"/>
<path d="" fill="#3F200A" transform="translate(0,0)"/>
<path d="" fill="#3F200A" transform="translate(0,0)"/>
<path d="" fill="#3F200A" transform="translate(0,0)"/>
<path d="" fill="#3F200A" transform="translate(0,0)"/>
<path d="" fill="#3F200A" transform="translate(0,0)"/>
<path d="" fill="#3F200A" transform="translate(0,0)"/>
<path d="" fill="#3F200A" transform="translate(0,0)"/>
<path d="" fill="#3F200A" transform="translate(0,0)"/>
<path d="" fill="#3F200A" transform="translate(0,0)"/>
<path d="" fill="#3F200A" transform="translate(0,0)"/>
<path d="" fill="#3F200A" transform="translate(0,0)"/>
<path d="" fill="#1D0601" transform="translate(0,0)"/>
<path d="" fill="#3F200A" transform="translate(0,0)"/>
<path d="" fill="#1D0601" transform="translate(0,0)"/>
<path d="" fill="#3F200A" transform="translate(0,0)"/>
<path d="" fill="#1D0601" transform="translate(0,0)"/>
<path d="" fill="#3F200A" transform="translate(0,0)"/>
<path d="" fill="#1D0601" transform="translate(0,0)"/>
<path d="" fill="#3F200A" transform="translate(0,0)"/>
<path d="" fill="#1D0601" transform="translate(0,0)"/>
<path d="" fill="#3F200A" transform="translate(0,0)"/>
<path d="" fill="#3F200A" transform="translate(0,0)"/>
<path d="" fill="#3F200A" transform="translate(0,0)"/>
<path d="" fill="#3F200A" transform="translate(0,0)"/>
<path d="" fill="#3F200A" transform="translate(0,0)"/>
<path d="" fill="#3F200A" transform="translate(0,0)"/>
<path d="" fill="#3F200A" transform="translate(0,0)"/>
<path d="" fill="#3F200A" transform="translate(0,0)"/>
<path d="" fill="#3F200A" transform="translate(0,0)"/>
<path d="" fill="#DE9B36" transform="translate(0,0)"/>
<path d="" fill="#3F200A" transform="translate(0,0)"/>
<path d="" fill="#3F200A" transform="translate(0,0)"/>
<path d="" fill="#3F200A" transform="translate(0,0)"/>
<path d="" fill="#3F200A" transform="translate(0,0)"/>
<path d="" fill="#3F200A" transform="translate(0,0)"/>
<path d="" fill="#3F200A" transform="translate(0,0)"/>
<path d="" fill="#3F200A" transform="translate(0,0)"/>
<path d="" fill="#3F200A" transform="translate(0,0)"/>
<path d="" fill="#3F200A" transform="translate(0,0)"/>
<path d="" fill="#DE9B36" transform="translate(0,0)"/>
<path d="" fill="#3F200A" transform="translate(0,0)"/>
<path d="" fill="#3F200A" transform="translate(0,0)"/>
<path d="" fill="#3F200A" transform="translate(0,0)"/>
<path d="" fill="#3F200A" transform="translate(0,0)"/>
<path d="" fill="#3F200A" transform="translate(0,0)"/>
<path d="" fill="#3F200A" transform="translate(0,0)"/>
<path d="" fill="#3F200A" transform="translate(0,0)"/>
<path d="" fill="#3F200A" transform="translate(0,0)"/>
<path d="" fill="#3F200A" transform="translate(0,0)"/>
<path d="" fill="#3F200A" transform="translate(0,0)"/>
<path d="" fill="#1D0601" transform="translate(0,0)"/>
<path d="" fill="#3F200A" transform="translate(0,0)"/>
<path d="" fill="#3F200A" transform="translate(0,0)"/>
<path d="" fill="#3F200A" transform="translate(0,0)"/>
<path d="" fill="#1D0601" transform="translate(0,0)"/>
<path d="" fill="#3F200A" transform="translate(0,0)"/>
<path d="" fill="#3F200A" transform="translate(0,0)"/>
<path d="" fill="#1D0601" transform="translate(0,0)"/>
<path d="" fill="#1D0601" transform="translate(0,0)"/>
<path d="" fill="#3F200A" transform="translate(0,0)"/>
<path d="" fill="#3F200A" transform="translate(0,0)"/>
<path d="" fill="#1D0601" transform="translate(0,0)"/>
<path d="" fill="#1D0601" transform="translate(0,0)"/>
<path d="" fill="#3F200A" transform="translate(0,0)"/>
<path d="" fill="#1D0601" transform="translate(0,0)"/>
<path d="" fill="#1D0601" transform="translate(0,0)"/>
<path d="" fill="#3F200A" transform="translate(0,0)"/>
<path d="" fill="#1D0601" transform="translate(0,0)"/>
<path d="" fill="#1D0601" transform="translate(0,0)"/>
<path d="" fill="#3F200A" transform="translate(0,0)"/>
<path d="" fill="#1D0601" transform="translate(0,0)"/>
<path d="" fill="#1D0601" transform="translate(0,0)"/>
<path d="" fill="#1D0601" transform="translate(0,0)"/>
<path d="" fill="#3F200A" transform="translate(0,0)"/>
<path d="" fill="#1D0601" transform="translate(0,0)"/>
<path d="" fill="#3F200A" transform="translate(0,0)"/>
<path d="" fill="#1D0601" transform="translate(0,0)"/>
<path d="" fill="#1D0601" transform="translate(0,0)"/>
<path d="" fill="#3F200A" transform="translate(0,0)"/>
<path d="" fill="#1D0601" transform="translate(0,0)"/>
<path d="" fill="#3F200A" transform="translate(0,0)"/>
<path d="" fill="#1D0601" transform="translate(0,0)"/>
<path d="" fill="#DE9B36" transform="translate(0,0)"/>
<path d="" fill="#1D0601" transform="translate(0,0)"/>
<path d="" fill="#DE9B36" transform="translate(0,0)"/>
<path d="" fill="#3F200A" transform="translate(0,0)"/>
<path d="" fill="#3F200A" transform="translate(0,0)"/>
<path d="" fill="#3F200A" transform="translate(0,0)"/>
<path d="" fill="#1D0601" transform="translate(0,0)"/>
<path d="" fill="#1D0601" transform="translate(0,0)"/>
<path d="" fill="#3F200A" transform="translate(0,0)"/>
<path d="" fill="#1D0601" transform="translate(0,0)"/>
<path d="" fill="#1D0601" transform="translate(0,0)"/>
<path d="" fill="#1D0601" transform="translate(0,0)"/>
<path d="" fill="#3F200A" transform="translate(0,0)"/>
<path d="" fill="#1D0601" transform="translate(0,0)"/>
<path d="" fill="#3F200A" transform="translate(0,0)"/>
<path d="" fill="#1D0601" transform="translate(0,0)"/>
<path d="" fill="#1D0601" transform="translate(0,0)"/>
<path d="" fill="#3F200A" transform="translate(0,0)"/>
<path d="" fill="#3F200A" transform="translate(0,0)"/>
<path d="" fill="#3F200A" transform="translate(0,0)"/>
<path d="" fill="#DE9B36" transform="translate(0,0)"/>
<path d="" fill="#DE9B36" transform="translate(0,0)"/>
<path d="" fill="#3F200A" transform="translate(0,0)"/>
<path d="" fill="#3F200A" transform="translate(0,0)"/>
<path d="" fill="#DE9B36" transform="translate(0,0)"/>
<path d="" fill="#3F200A" transform="translate(0,0)"/>
<path d="" fill="#3F200A" transform="translate(0,0)"/>
<path d="" fill="#3F200A" transform="translate(0,0)"/>
<path d="" fill="#3F200A" transform="translate(0,0)"/>
<path d="" fill="#3F200A" transform="translate(0,0)"/>
<path d="" fill="#3F200A" transform="translate(0,0)"/>
<path d="" fill="#3F200A" transform="translate(0,0)"/>
<path d="" fill="#3F200A" transform="translate(0,0)"/>
<path d="" fill="#3F200A" transform="translate(0,0)"/>
<path d="" fill="#3F200A" transform="translate(0,0)"/>
<path d="" fill="#DE9B36" transform="translate(0,0)"/>
<path d="" fill="#DE9B36" transform="translate(0,0)"/>
<path d="" fill="#1D0601" transform="translate(0,0)"/>
<path d="" fill="#3F200A" transform="translate(0,0)"/>
<path d="" fill="#3F200A" transform="translate(0,0)"/>
<path d="" fill="#3F200A" transform="translate(0,0)"/>
<path d="" fill="#3F200A" transform="translate(0,0)"/>
<path d="" fill="#3F200A" transform="translate(0,0)"/>
<path d="" fill="#3F200A" transform="translate(0,0)"/>
<path d="" fill="#DE9B36" transform="translate(0,0)"/>
<path d="" fill="#DE9B36" transform="translate(0,0)"/>
<path d="" fill="#DE9B36" transform="translate(0,0)"/>
<path d="" fill="#3F200A" transform="translate(0,0)"/>
<path d="" fill="#3F200A" transform="translate(0,0)"/>
<path d="" fill="#3F200A" transform="translate(0,0)"/>
<path d="" fill="#DE9B36" transform="translate(0,0)"/>
<path d="" fill="#3F200A" transform="translate(0,0)"/>
<path d="" fill="#3F200A" transform="translate(0,0)"/>
<path d="" fill="#1D0601" transform="translate(0,0)"/>
<path d="" fill="#3F200A" transform="translate(0,0)"/>
<path d="" fill="#DE9B36" transform="translate(0,0)"/>
<path d="" fill="#3F200A" transform="translate(0,0)"/>
<path d="" fill="#3F200A" transform="translate(0,0)"/>
<path d="" fill="#DE9B36" transform="translate(0,0)"/>
<path d="" fill="#3F200A" transform="translate(0,0)"/>
<path d="" fill="#DE9B36" transform="translate(0,0)"/>
<path d="" fill="#3F200A" transform="translate(0,0)"/>
<path d="" fill="#3F200A" transform="translate(0,0)"/>
<path d="" fill="#3F200A" transform="translate(0,0)"/>
<path d="" fill="#3F200A" transform="translate(0,0)"/>
<path d="" fill="#3F200A" transform="translate(0,0)"/>
<path d="" fill="#3F200A" transform="translate(0,0)"/>
<path d="" fill="#1D0601" transform="translate(0,0)"/>
<path d="" fill="#3F200A" transform="translate(0,0)"/>
<path d="" fill="#1D0601" transform="translate(0,0)"/>
<path d="" fill="#1D0601" transform="translate(0,0)"/>
<path d="" fill="#3F200A" transform="translate(0,0)"/>
<path d="" fill="#3F200A" transform="translate(0,0)"/>
<path d="" fill="#3F200A" transform="translate(0,0)"/>
<path d="" fill="#1D0601" transform="translate(0,0)"/>
<path d="" fill="#1D0601" transform="translate(0,0)"/>
<path d="" fill="#1D0601" transform="translate(0,0)"/>
<path d="" fill="#3F200A" transform="translate(0,0)"/>
<path d="" fill="#1D0601" transform="translate(0,0)"/>
<path d="" fill="#1D0601" transform="translate(0,0)"/>
<path d="" fill="#DE9B36" transform="translate(0,0)"/>
<path d="" fill="#1D0601" transform="translate(0,0)"/>
<path d="" fill="#1D0601" transform="translate(0,0)"/>
<path d="" fill="#1D0601" transform="translate(0,0)"/>
<path d="" fill="#1D0601" transform="translate(0,0)"/>
<path d="" fill="#1D0601" transform="translate(0,0)"/>
<path d="" fill="#1D0601" transform="translate(0,0)"/>
<path d="" fill="#1D0601" transform="translate(0,0)"/>
<path d="" fill="#1D0601" transform="translate(0,0)"/>
<path d="" fill="#1D0601" transform="translate(0,0)"/>
<path d="" fill="#1D0601" transform="translate(0,0)"/>
<path d="" fill="#1D0601" transform="translate(0,0)"/>
<path d="" fill="#1D0601" transform="translate(0,0)"/>
<path d="" fill="#1D0601" transform="translate(0,0)"/>
<path d="" fill="#3F200A" transform="translate(0,0)"/>
<path d="" fill="#3F200A" transform="translate(0,0)"/>
<path d="" fill="#3F200A" transform="translate(0,0)"/>
<path d="" fill="#3F200A" transform="translate(0,0)"/>
<path d="" fill="#3F200A" transform="translate(0,0)"/>
<path d="" fill="#3F200A" transform="translate(0,0)"/>
<path d="" fill="#3F200A" transform="translate(0,0)"/>
<path d="" fill="#DE9B36" transform="translate(0,0)"/>
<path d="" fill="#3F200A" transform="translate(0,0)"/>
<path d="" fill="#3F200A" transform="translate(0,0)"/>
<path d="" fill="#DE9B36" transform="translate(0,0)"/>
</svg>
